<?xml version="1.0" encoding="UTF-8"?>
<svg version="1.1" xmlns="http://www.w3.org/2000/svg" width="1536" height="1024">
<path d="M0 0 C506.88 0 1013.76 0 1536 0 C1536 337.92 1536 675.84 1536 1024 C1029.12 1024 522.24 1024 0 1024 C0 686.08 0 348.16 0 0 Z " fill="#0D1527" transform="translate(0,0)"/>
<path d="M0 0 C0.89976562 0.07863281 1.79953125 0.15726562 2.7265625 0.23828125 C5.50339949 0.70927867 7.77512516 1.62658333 10.375 2.6875 C12.47766647 3.05609141 12.47766647 3.05609141 14.5 3.1875 C18.375 3.6875 18.375 3.6875 21.375 5.6875 C23.27603 6.3392004 25.19607421 6.93619706 27.125 7.5 C34.59613209 9.74298888 42.00181441 12.14349391 49.375 14.6875 C50.38216064 15.03240479 50.38216064 15.03240479 51.40966797 15.38427734 C70.80918235 22.08988997 90.19134748 30.13828844 108.375 39.6875 C109.01969238 40.02442871 109.66438477 40.36135742 110.32861328 40.70849609 C112.04379643 41.64324527 113.71140603 42.66374986 115.375 43.6875 C116.48230469 44.31527344 117.58960938 44.94304687 118.73046875 45.58984375 C121.76349468 48.24008992 121.95405212 50.90669411 122.36328125 54.81640625 C122.50050605 57.29282746 122.60690302 59.7710896 122.6875 62.25 C122.75179199 63.55759277 122.81608398 64.86518555 122.88232422 66.21240234 C123.00923692 68.83881717 123.12466207 71.4658148 123.22802734 74.09326172 C123.35093581 77.09900655 123.51070798 80.09605291 123.70703125 83.09765625 C127.32866271 139.47687311 119.21194863 198.23971598 81.0546875 242.37109375 C79.53909084 244.05880054 78.01199678 245.73626507 76.47265625 247.40234375 C74.64660799 249.3916142 72.9150992 251.426015 71.1875 253.5 C51.49901393 275.94306784 24.90638029 292.34996363 -2 304.75 C-2.87398437 305.15347656 -3.74796875 305.55695313 -4.6484375 305.97265625 C-13.45562514 308.08776824 -20.80193678 304.17844118 -28.5625 300.3125 C-29.65916992 299.77447754 -30.75583984 299.23645508 -31.88574219 298.68212891 C-49.72229897 289.79509704 -65.70137675 279.2918565 -80.3671875 265.7578125 C-82.38975254 263.90321134 -84.45983984 262.13714839 -86.5625 260.375 C-101.0154559 247.68883831 -113.846341 231.3267532 -121.625 213.6875 C-121.625 212.6975 -121.625 211.7075 -121.625 210.6875 C-122.285 210.6875 -122.945 210.6875 -123.625 210.6875 C-128.59267401 204.23389418 -134.74350174 193.78495311 -134.58203125 185.4765625 C-133.12470248 182.75224994 -131.16606089 182.17959516 -128.375 180.9375 C-123.96635973 178.85980553 -119.81123409 176.660722 -115.6875 174.0625 C-110.24190203 170.64855369 -104.71575372 167.42021752 -99.125 164.25 C-90.14699316 159.15155405 -81.2203132 153.96973861 -72.3125 148.75 C-71.68907715 148.38528595 -71.0656543 148.0205719 -70.42333984 147.64480591 C-62.12065867 142.79494168 -62.12065867 142.79494168 -53.97265625 137.69140625 C-50.625 135.6875 -50.625 135.6875 -47.375 135.5625 C-38.46651673 138.23504498 -30.72753022 141.60856973 -23.625 147.6875 C-25.50831247 151.86774964 -27.45779754 153.60389877 -31.625 155.6875 C-35.59934027 155.88542531 -39.03465637 154.90002371 -42.75 153.5625 C-46.99276807 152.27122276 -49.92100442 152.86478172 -53.92675781 154.79882812 C-56.70949743 156.3193702 -59.45093578 157.8978411 -62.1875 159.5 C-63.69594482 160.36818359 -63.69594482 160.36818359 -65.23486328 161.25390625 C-67.32843839 162.45940717 -69.41988967 163.66860352 -71.50927734 164.88134766 C-75.4298292 167.1540512 -79.36431209 169.40180187 -83.30053711 171.6472168 C-85.04582219 172.64305686 -86.79019055 173.64050603 -88.53344727 174.63989258 C-93.87300298 177.70034999 -99.23752522 180.71220695 -104.625 183.6875 C-103.90258802 187.80454694 -102.60146289 190.99237372 -100.625 194.6875 C-95.82242824 195.02256315 -93.58094693 194.35546421 -89.625 191.6875 C-87.29522186 190.4333163 -84.95656642 189.19749785 -82.61328125 187.96875 C-80.33854599 186.69000813 -80.33854599 186.69000813 -78.625 183.6875 C-76.64927093 182.64036359 -74.64488353 181.64670306 -72.625 180.6875 C-70.5279712 179.4393953 -68.44498307 178.1674648 -66.375 176.875 C-65.2345031 176.16906384 -64.09387663 175.46333696 -62.953125 174.7578125 C-60.87688946 173.46625753 -58.80346683 172.17015614 -56.734375 170.8671875 C-55.87328125 170.33351563 -55.0121875 169.79984375 -54.125 169.25 C-53.3721875 168.77691406 -52.619375 168.30382812 -51.84375 167.81640625 C-48.58769055 166.15971403 -46.0043631 165.31707033 -42.4140625 166.28125 C-40.9757842 166.88356149 -39.53827697 167.48771771 -38.1015625 168.09375 C-33.07212459 169.29954584 -29.00424796 168.09634021 -24.63671875 165.5703125 C-23.18781427 164.66290594 -21.7467224 163.74293911 -20.3125 162.8125 C-18.7228599 161.81087465 -17.13300989 160.80958235 -15.54296875 159.80859375 C-14.73263184 159.29280762 -13.92229492 158.77702148 -13.08740234 158.24560547 C-8.37153114 155.26159892 -3.6010191 152.36512142 1.18041992 149.48754883 C4.25784865 147.62957452 7.25227176 145.77653814 10.1640625 143.6640625 C15.93914745 139.55003877 20.723594 139.37857965 27.61132812 139.64379883 C33.16886559 139.82626335 37.12350594 139.40369699 41.375 135.6875 C47.19794158 129.29897469 48.70049632 124.36748074 48.6796875 115.7734375 C48.24311173 111.35170854 46.53969694 108.52809134 44.375 104.6875 C45.71312658 100.67312026 48.35072991 98.9068805 51.5625 96.375 C52.41038086 95.65473633 52.41038086 95.65473633 53.27539062 94.91992188 C54.98046875 93.57421875 54.98046875 93.57421875 58.375 91.6875 C61.34375 92.36328125 61.34375 92.36328125 64.375 93.6875 C71.4250594 94.49410746 78.3600075 94.98867888 84.5625 91.125 C89.05672748 87.53638898 91.46399144 83.72419519 93.125 78.1875 C93.2075 77.3625 93.29 76.5375 93.375 75.6875 C93.49875 74.635625 93.6225 73.58375 93.75 72.5 C93.15941092 66.49567767 91.04820898 60.9706493 86.3671875 56.97265625 C79.32204668 52.48820314 72.65059062 51.69020982 64.375 52.6875 C59.15985125 54.78856712 54.48673061 58.3482678 51.953125 63.49609375 C50.46770247 69.12664808 50.5859627 75.7275203 52.08203125 81.33984375 C52.375 83.6875 52.375 83.6875 51.1875 85.71484375 C49.274139 87.73129532 47.33868022 89.71998447 45.375 91.6875 C44.6325 92.60208984 44.6325 92.60208984 43.875 93.53515625 C41.02121595 96.67877774 39.22849156 97.63162809 34.9140625 97.9140625 C32.29109884 97.84600157 29.66857083 97.7585587 27.046875 97.65234375 C20.48657882 97.7151551 16.28989594 100.01705886 11.4375 104.25 C7.73884973 108.62113213 7.10096696 110.8786866 7.125 116.5625 C7.11984375 117.77679688 7.1146875 118.99109375 7.109375 120.2421875 C7.36515659 123.55982512 8.11545688 125.6585987 9.375 128.6875 C9.5 131.5 9.5 131.5 9.375 133.6875 C0.69907454 140.09476033 -5.3898179 142.56454965 -16.20092773 140.98095703 C-18.30078125 140.6015625 -18.30078125 140.6015625 -21.625 139.6875 C-21.955 139.0275 -22.285 138.3675 -22.625 137.6875 C-24.64963255 137.03536708 -24.64963255 137.03536708 -26.625 136.6875 C-25.875 134.75 -25.875 134.75 -24.625 132.6875 C-22.546875 132.05859375 -22.546875 132.05859375 -20.625 131.6875 C-20.66427612 130.52347656 -20.66427612 130.52347656 -20.7043457 129.3359375 C-20.80890727 125.786668 -20.87351554 122.23772349 -20.9375 118.6875 C-20.97939453 117.46675781 -21.02128906 116.24601562 -21.06445312 114.98828125 C-21.16526765 107.52800605 -20.71369725 102.36126383 -15.625 96.6875 C-13.625 94.69140625 -13.625 94.69140625 -11.625 93.25 C-10.86058594 92.69054687 -10.09617187 92.13109375 -9.30859375 91.5546875 C-8.42300781 90.93851562 -7.53742188 90.32234375 -6.625 89.6875 C-6.08117676 89.30883789 -5.53735352 88.93017578 -4.97705078 88.54003906 C-2.64654984 86.91977985 -0.31545089 85.30114771 2.03320312 83.70727539 C4.32862843 82.14526478 6.40632337 80.65617663 8.375 78.6875 C8.66706811 76.50460685 8.66706811 76.50460685 8.60205078 73.96240234 C8.60189972 72.98153656 8.60174866 72.00067078 8.60159302 70.99008179 C8.59127045 69.92858917 8.58094788 68.86709656 8.5703125 67.7734375 C8.5674826 66.68866119 8.56465271 65.60388489 8.56173706 64.48623657 C8.55051578 61.01154687 8.52540762 57.53711218 8.5 54.0625 C8.48997272 51.71094121 8.48084643 49.3593784 8.47265625 47.0078125 C8.45057011 41.23428756 8.41707345 35.46091199 8.375 29.6875 C-2.69842041 25.71669798 -12.46736432 28.50319644 -23.5 31.4375 C-24.25366852 31.6345755 -25.00733704 31.831651 -25.78384399 32.03469849 C-51.1559574 38.69182852 -76.27032801 46.86118908 -100.1953125 57.66015625 C-102.48254133 58.62726426 -104.75247127 59.39793474 -107.125 60.125 C-110.94511267 61.39020431 -113.74719621 62.76765037 -116.625 65.6875 C-119.03411112 72.56962536 -118.67196728 79.46651087 -118.625 86.6875 C-118.64538938 89.13455169 -118.67596196 91.58137597 -118.70654297 94.02832031 C-118.89620264 109.94222594 -119.05289961 125.82286164 -117.625 141.6875 C-105.19498473 133.98972405 -92.99755803 126.0165876 -80.9375 117.75 C-80.22916016 117.26474854 -79.52082031 116.77949707 -78.79101562 116.27954102 C-75.56103819 114.16676232 -75.56103819 114.16676232 -72.625 111.6875 C-72.66683914 107.81928106 -72.75167325 103.9600957 -72.92773438 100.09570312 C-73.05433161 94.0799902 -72.03040585 89.70530008 -68.625 84.6875 C-63.58720884 79.53521359 -57.82872772 76.67374869 -50.625 76.25 C-44.68551425 76.50671648 -40.2086897 79.31496892 -35.8125 83.125 C-30.88777285 88.89396608 -30.01978838 92.94706547 -30.21484375 100.4609375 C-31.12547939 107.62460451 -35.45092326 112.13904108 -40.94140625 116.5078125 C-44.27954691 118.84683449 -47.3663071 119.63445571 -51.33984375 120.44921875 C-55.80131764 121.56395442 -59.04262326 123.59634636 -62.75 126.25 C-64.06695144 127.15995058 -65.38467719 128.0687814 -66.703125 128.9765625 C-67.35990234 129.43321289 -68.01667969 129.88986328 -68.69335938 130.36035156 C-71.5869276 132.3483997 -74.53878374 134.2398133 -77.5 136.125 C-78.64991055 136.86040982 -79.79964665 137.59609249 -80.94921875 138.33203125 C-81.53880371 138.70924316 -82.12838867 139.08645508 -82.73583984 139.47509766 C-85.52995695 141.26827232 -88.31581463 143.07411872 -91.10180664 144.87988281 C-93.26990544 146.28489703 -95.43945613 147.68764253 -97.609375 149.08984375 C-100.10285211 150.70114993 -102.59243748 152.31811502 -105.078125 153.94140625 C-106.06296875 154.57949219 -107.0478125 155.21757812 -108.0625 155.875 C-108.90683594 156.42542969 -109.75117188 156.97585938 -110.62109375 157.54296875 C-112.625 158.6875 -112.625 158.6875 -114.625 158.6875 C-114.955 159.6775 -115.285 160.6675 -115.625 161.6875 C-117.26953125 162.79296875 -117.26953125 162.79296875 -119.4375 163.875 C-124.60158465 166.58157813 -129.32826372 169.80176012 -134.12109375 173.11328125 C-136.625 174.6875 -136.625 174.6875 -138.625 174.6875 C-145.87484232 147.95191549 -147.5426537 121.26732735 -146.625 93.6875 C-146.59684204 92.80777527 -146.56868408 91.92805054 -146.53967285 91.02166748 C-146.34823604 85.30671551 -146.09509219 79.5982469 -145.77667236 73.88894653 C-145.67635432 72.0194986 -145.5879011 70.14937247 -145.51190186 68.27877808 C-144.88821624 53.65073946 -144.88821624 53.65073946 -141.93457031 49.06030273 C-139.9195156 47.23322673 -138.02399342 45.95531538 -135.625 44.6875 C-134.60921875 44.02363281 -133.5934375 43.35976563 -132.546875 42.67578125 C-100.79892658 25.90254249 -66.0827693 13.98921616 -31.29150391 5.35009766 C-28.76654006 4.72267119 -26.24801772 4.0744278 -23.73046875 3.41796875 C-7.63506915 -0.73710322 -7.63506915 -0.73710322 0 0 Z " fill="#46A5A3" transform="translate(316.625,340.3125)"/>
<path d="M0 0 C3.67197961 22.77821499 -0.24265196 47.41974442 -8 69 C-8.27827637 69.78004395 -8.55655273 70.56008789 -8.84326172 71.36376953 C-24.85302157 115.41009098 -56.11357638 147.74460188 -97.5625 169.0625 C-98.3366626 169.46911865 -99.1108252 169.8757373 -99.90844727 170.29467773 C-100.64119873 170.66278564 -101.3739502 171.03089355 -102.12890625 171.41015625 C-102.77931885 171.74152588 -103.42973145 172.07289551 -104.09985352 172.41430664 C-108.76389495 173.85193165 -113.29543018 170.50600742 -117.375 168.4375 C-118.43412598 167.90177368 -118.43412598 167.90177368 -119.51464844 167.35522461 C-134.097861 159.91177789 -147.05217033 151.28958393 -159.5625 140.6875 C-160.15869141 140.18379883 -160.75488281 139.68009766 -161.36914062 139.16113281 C-164.28510726 136.64950908 -166.8578509 134.209412 -169 131 C-168.4225 131.33 -167.845 131.66 -167.25 132 C-164.80116138 133.27075898 -164.80116138 133.27075898 -161 133 C-160.34 133 -159.68 133 -159 133 C-159 132.34 -159 131.68 -159 131 C-157.71086513 130.32845067 -156.41859796 129.66291141 -155.125 129 C-154.40570313 128.62875 -153.68640625 128.2575 -152.9453125 127.875 C-151 127 -151 127 -149 127 C-149 126.34 -149 125.68 -149 125 C-145.09983138 123.01570368 -141.24847141 121.06883039 -137.1875 119.4375 C-134.08978959 118.26673564 -134.08978959 118.26673564 -132.5 116.5 C-130.59094114 114.59094114 -128.45366613 113.88010227 -125.9765625 112.89453125 C-123.02335251 111.55799946 -120.39233551 109.78192876 -117.69921875 107.98828125 C-116 107 -116 107 -114 107 C-114 106.34 -114 105.68 -114 105 C-113.38511719 104.74605469 -112.77023437 104.49210938 -112.13671875 104.23046875 C-111.32847656 103.88628906 -110.52023437 103.54210937 -109.6875 103.1875 C-108.88699219 102.85105469 -108.08648437 102.51460937 -107.26171875 102.16796875 C-105.00257122 101.0013278 -103.76962097 99.78374029 -102 98 C-100.01953125 97.0078125 -100.01953125 97.0078125 -97.8125 96.125 C-93.7902852 94.42936043 -90.24960626 92.3815541 -86.62890625 89.953125 C-85 89 -85 89 -83 89 C-84.08815051 83.82060876 -84.08815051 83.82060876 -86.125 79 C-88.45083976 73.68379484 -87.08669807 67.44281811 -85.18359375 62.1796875 C-82.46528559 57.17369426 -77.31507824 53.02029617 -72 51 C-64.44454874 50.17307849 -56.87047195 49.67978023 -50.5859375 54.49609375 C-48.08493453 56.86773449 -46.00398226 59.18189995 -44 62 C-44 62.66 -44 63.32 -44 64 C-41.32948512 63.26495826 -41.32948512 63.26495826 -39 61 C-38.29806508 57.49376651 -38.52039944 54.0132346 -38.64453125 50.453125 C-38.66218864 48.30730259 -38.67841961 46.16146805 -38.69335938 44.015625 C-38.74513631 40.63319274 -38.812427 37.25261071 -38.90698242 33.87109375 C-39.37396992 15.13681513 -39.37396992 15.13681513 -36.0234375 9.92602539 C-30.83867129 5.96305453 -25.70391529 5.19205855 -19.375 5.9375 C-14.15394101 6.27175767 -10.37810057 6.41035657 -6.125 3 C-5.29355469 2.1646875 -5.29355469 2.1646875 -4.4453125 1.3125 C-3 0 -3 0 0 0 Z " fill="#0E1628" transform="translate(413,445)"/>
<path d="M0 0 C1.70456886 2.45262202 1.88241346 4.80964105 2.20776367 7.73779297 C2.86776367 7.73779297 3.52776367 7.73779297 4.20776367 7.73779297 C5.04900683 9.98511399 5.88091199 12.23518082 6.70776367 14.48779297 C6.94624023 15.12201172 7.1847168 15.75623047 7.43041992 16.40966797 C8.65578125 19.77065904 9.20776367 22.10650884 9.20776367 25.73779297 C8.36213867 25.42841797 7.51651367 25.11904297 6.64526367 24.80029297 C3.15797828 23.72240476 -0.17401168 23.17197993 -3.79223633 22.73779297 C-3.79223633 23.39779297 -3.79223633 24.05779297 -3.79223633 24.73779297 C-4.75484375 24.97788086 -5.71745117 25.21796875 -6.70922852 25.46533203 C-38.29827961 33.38537194 -69.6115515 42.28180757 -99.36254883 55.71044922 C-101.64977765 56.67755723 -103.9197076 57.44822771 -106.29223633 58.17529297 C-110.112349 59.44049727 -112.91443254 60.81794334 -115.79223633 63.73779297 C-118.20134745 70.61991833 -117.83920361 77.51680384 -117.79223633 84.73779297 C-117.81262571 87.18484466 -117.84319828 89.63166894 -117.8737793 92.07861328 C-118.06343897 107.9925189 -118.22013594 123.87315461 -116.79223633 139.73779297 C-104.36222106 132.04001701 -92.16479435 124.06688057 -80.10473633 115.80029297 C-79.39639648 115.3150415 -78.68805664 114.82979004 -77.95825195 114.32983398 C-74.72827451 112.21705529 -74.72827451 112.21705529 -71.79223633 109.73779297 C-71.83407547 105.86957403 -71.91890957 102.01038867 -72.0949707 98.14599609 C-72.22156794 92.13028317 -71.19764218 87.75559304 -67.79223633 82.73779297 C-62.75444517 77.58550655 -56.99596405 74.72404166 -49.79223633 74.30029297 C-43.85275057 74.55700945 -39.37592603 77.36526189 -34.97973633 81.17529297 C-30.05500918 86.94425905 -29.18702471 90.99735844 -29.38208008 98.51123047 C-30.29271572 105.67489748 -34.61815958 110.18933405 -40.10864258 114.55810547 C-43.44678323 116.89712746 -46.53354343 117.68474868 -50.50708008 118.49951172 C-54.96855397 119.61424739 -58.20985958 121.64663932 -61.91723633 124.30029297 C-63.23418777 125.21024355 -64.55191352 126.11907437 -65.87036133 127.02685547 C-66.52713867 127.48350586 -67.18391602 127.94015625 -67.8605957 128.41064453 C-70.75416393 130.39869267 -73.70602007 132.29010627 -76.66723633 134.17529297 C-77.81714688 134.91070279 -78.96688298 135.64638546 -80.11645508 136.38232422 C-80.70604004 136.75953613 -81.295625 137.13674805 -81.90307617 137.52539062 C-84.69719328 139.31856529 -87.48305096 141.12441169 -90.26904297 142.93017578 C-92.43714177 144.33519 -94.60669246 145.73793549 -96.77661133 147.14013672 C-99.27008844 148.7514429 -101.75967381 150.36840798 -104.24536133 151.99169922 C-105.23020508 152.62978516 -106.21504883 153.26787109 -107.22973633 153.92529297 C-108.07407227 154.47572266 -108.9184082 155.02615234 -109.78833008 155.59326172 C-111.79223633 156.73779297 -111.79223633 156.73779297 -113.79223633 156.73779297 C-114.12223633 157.72779297 -114.45223633 158.71779297 -114.79223633 159.73779297 C-116.43676758 160.84326172 -116.43676758 160.84326172 -118.60473633 161.92529297 C-123.76882097 164.6318711 -128.49550004 167.85205308 -133.28833008 171.16357422 C-135.79223633 172.73779297 -135.79223633 172.73779297 -137.79223633 172.73779297 C-145.04207864 146.00220846 -146.70989003 119.31762032 -145.79223633 91.73779297 C-145.76407837 90.85806824 -145.73592041 89.97834351 -145.70690918 89.07196045 C-145.51547236 83.35700848 -145.26232852 77.64853987 -144.94390869 71.9392395 C-144.84359065 70.06979157 -144.75513743 68.19966544 -144.67913818 66.32907104 C-144.05545257 51.70103242 -144.05545257 51.70103242 -141.10180664 47.1105957 C-139.08675192 45.28351969 -137.19122975 44.00560835 -134.79223633 42.73779297 C-133.77645508 42.07392578 -132.76067383 41.41005859 -131.71411133 40.72607422 C-123.23382228 36.24572446 -114.53853443 32.34223042 -105.72973633 28.55029297 C-104.57119141 28.05118408 -103.41264648 27.5520752 -102.21899414 27.0378418 C-91.52161323 22.5016393 -80.98108234 18.04583487 -69.45581055 16.23535156 C-64.6096446 15.33008243 -60.01318319 13.63580875 -55.35473633 12.05029297 C-45.97830118 8.95637549 -36.55978021 6.25347879 -26.97973633 3.86279297 C-25.84286377 3.57702393 -24.70599121 3.29125488 -23.53466797 2.99682617 C-18.10038891 1.66669089 -12.64524453 0.43462952 -7.15551758 -0.64501953 C-6.19556885 -0.83725098 -5.23562012 -1.02948242 -4.24658203 -1.22753906 C-1.79223633 -1.26220703 -1.79223633 -1.26220703 0 0 Z " fill="#136FBA" transform="translate(315.792236328125,342.26220703125)"/>
<path d="M0 0 C6.87074411 3.07186771 10.02851733 7.12351516 13.43359375 13.609375 C15.23971695 20.17709571 13.87246914 26.0541392 11.12109375 32.109375 C8.3245715 36.7395144 4.36747301 40.57809349 -0.87890625 42.109375 C-7.00006111 42.64455794 -13.24378109 43.16473607 -19.01953125 40.8515625 C-21.94118866 39.74215688 -21.94118866 39.74215688 -24.546875 41.59375 C-25.37832031 42.34140625 -26.20976562 43.0890625 -27.06640625 43.859375 C-28.32517578 44.96539062 -28.32517578 44.96539062 -29.609375 46.09375 C-30.35832031 46.75890625 -31.10726562 47.4240625 -31.87890625 48.109375 C-32.86890625 48.769375 -33.85890625 49.429375 -34.87890625 50.109375 C-33.62977035 54.14676151 -33.62977035 54.14676151 -31.83203125 57.953125 C-29.63796356 62.91675354 -30.10244752 69.31040402 -31.53125 74.4609375 C-34.15599478 80.29620702 -38.53316556 84.34724651 -44.1484375 87.3046875 C-47.66436418 88.34085473 -50.48356187 87.93406154 -54.12890625 87.609375 C-63.76974707 87.20678798 -70.17932124 91.53947528 -77.93164062 96.79736328 C-80.66969863 98.64218822 -83.49107136 100.33960605 -86.31640625 102.046875 C-90.04320418 104.32228178 -93.70475686 106.65495725 -97.33203125 109.0859375 C-98.91010392 110.11466361 -100.48822865 111.14330987 -102.06640625 112.171875 C-102.79077881 112.67388428 -103.51515137 113.17589355 -104.26147461 113.69311523 C-109.27543922 116.91658056 -112.70777749 117.537063 -118.6105957 116.69702148 C-120.87890625 116.109375 -120.87890625 116.109375 -122.86010742 114.98852539 C-125.62248591 113.7855595 -127.02737602 114.22011541 -129.87890625 115.109375 C-132.45727917 116.35598876 -132.45727917 116.35598876 -135.0390625 117.9453125 C-135.99748047 118.51507813 -136.95589844 119.08484375 -137.94335938 119.671875 C-138.93271484 120.27 -139.92207031 120.868125 -140.94140625 121.484375 C-142.43124023 122.36996094 -142.43124023 122.36996094 -143.95117188 123.2734375 C-149.10673881 126.31488205 -149.10673881 126.31488205 -154.00561523 129.74072266 C-155.87890625 131.109375 -155.87890625 131.109375 -158.87890625 132.109375 C-159.48605469 132.72425781 -160.09320313 133.33914063 -160.71875 133.97265625 C-163.12008705 136.34793901 -165.46208579 137.72006458 -168.44140625 139.296875 C-169.86646484 140.06064453 -169.86646484 140.06064453 -171.3203125 140.83984375 C-174.07499299 142.20666995 -176.22612754 143.09263708 -179.31640625 143.171875 C-182.87199371 141.69760703 -183.62707467 139.57207053 -185.27734375 136.21484375 C-186.00289578 133.67541164 -185.81150157 132.56462356 -184.87890625 130.109375 C-183.31030273 128.86767578 -183.31030273 128.86767578 -181.25 127.8046875 C-180.47390381 127.39307373 -179.69780762 126.98145996 -178.89819336 126.55737305 C-178.04620361 126.12078369 -177.19421387 125.68419434 -176.31640625 125.234375 C-174.49183277 124.26744283 -172.66899054 123.2972386 -170.84765625 122.32421875 C-169.87957031 121.80843262 -168.91148437 121.29264648 -167.9140625 120.76123047 C-161.643037 117.34828335 -155.51575835 113.6840187 -149.36694336 110.05712891 C-146.54381234 108.39685957 -143.71442471 106.7483945 -140.87890625 105.109375 C-139.88044678 104.5313916 -138.8819873 103.9534082 -137.85327148 103.35791016 C-136.87946533 102.80796387 -135.90565918 102.25801758 -134.90234375 101.69140625 C-134.02884277 101.19487549 -133.1553418 100.69834473 -132.25537109 100.18676758 C-127.68348895 98.11406202 -124.24642203 99.64441964 -119.75390625 101.171875 C-116.72473995 102.15964662 -115.01782842 102.64528854 -111.87890625 102.109375 C-109.34285869 100.68218506 -106.99084677 99.1178487 -104.87890625 97.109375 C-104.87890625 96.449375 -104.87890625 95.789375 -104.87890625 95.109375 C-106.89681961 93.51968253 -106.89681961 93.51968253 -109.37890625 91.984375 C-110.21421875 91.44554687 -111.04953125 90.90671875 -111.91015625 90.3515625 C-112.55984375 89.94164062 -113.20953125 89.53171875 -113.87890625 89.109375 C-112.88890625 88.449375 -111.89890625 87.789375 -110.87890625 87.109375 C-110.14547197 84.04380902 -110.14547197 84.04380902 -109.87890625 81.109375 C-107.89890625 81.604375 -107.89890625 81.604375 -105.87890625 82.109375 C-106.20890625 82.769375 -106.53890625 83.429375 -106.87890625 84.109375 C-105.22890625 84.439375 -103.57890625 84.769375 -101.87890625 85.109375 C-101.87890625 85.769375 -101.87890625 86.429375 -101.87890625 87.109375 C-89.62210752 88.83752553 -83.20232907 88.38475734 -72.87890625 81.109375 C-72.21890625 81.109375 -71.55890625 81.109375 -70.87890625 81.109375 C-71.09546875 80.54992187 -71.31203125 79.99046875 -71.53515625 79.4140625 C-74.21091767 71.70886062 -75.88009506 62.73590585 -73.0703125 54.8359375 C-69.48889199 49.1601915 -63.06730976 46.17217617 -56.87890625 44.109375 C-55.83863281 44.20476562 -54.79835938 44.30015625 -53.7265625 44.3984375 C-45.52758971 45.16003875 -45.52758971 45.16003875 -38.2578125 41.8046875 C-34.63832166 38.70105743 -30.8197902 35.42411603 -28.99609375 30.9375 C-28.74864203 28.87305346 -28.74864203 28.87305346 -29.87890625 26.109375 C-30.54849315 19.11697464 -30.95259075 12.62248196 -26.5390625 6.83203125 C-18.90621231 -1.0881733 -10.71722256 -3.3155044 0 0 Z " fill="#0F172A" transform="translate(396.87890625,392.890625)"/>
<path d="M0 0 C3.52733326 1.18455221 4.45298034 2.86567262 6.4921875 5.94140625 C9.52935086 10.37589572 12.70641211 14.38988178 16.3671875 18.3203125 C17.6171875 19.87890625 17.6171875 19.87890625 17.6171875 21.87890625 C18.6071875 22.20890625 19.5971875 22.53890625 20.6171875 22.87890625 C21.94921875 24.3046875 21.94921875 24.3046875 23.4296875 26.19140625 C35.61476854 40.47119724 51.79071402 50.36743348 68.0546875 59.31640625 C68.97830078 59.82494141 69.90191406 60.33347656 70.85351562 60.85742188 C76.00741514 63.63776593 81.08032018 65.96852513 86.6171875 67.87890625 C86.2871875 68.53890625 85.9571875 69.19890625 85.6171875 69.87890625 C85.53247386 71.69232467 85.50997667 73.50884786 85.51953125 75.32421875 C85.52275391 76.40058594 85.52597656 77.47695313 85.52929688 78.5859375 C85.53767578 79.71386719 85.54605469 80.84179688 85.5546875 82.00390625 C85.55919922 83.13957031 85.56371094 84.27523437 85.56835938 85.4453125 C85.58017135 88.25656263 85.59664243 91.06770855 85.6171875 93.87890625 C90.21613184 93.0189762 94.12920817 91.48237552 98.41015625 89.62109375 C99.13847656 89.37617187 99.86679687 89.13125 100.6171875 88.87890625 C101.2771875 89.20890625 101.9371875 89.53890625 102.6171875 89.87890625 C101.05599328 90.67314486 99.49316786 91.46417748 97.9296875 92.25390625 C97.05957031 92.69476562 96.18945312 93.135625 95.29296875 93.58984375 C94.40996094 94.01523437 93.52695312 94.440625 92.6171875 94.87890625 C91.86824219 95.28367187 91.11929688 95.6884375 90.34765625 96.10546875 C81.81875624 98.52138034 74.17871799 94.23956434 66.6796875 90.50390625 C65.58301758 89.96588379 64.48634766 89.42786133 63.35644531 88.87353516 C45.51988853 79.98650329 29.54081075 69.48326275 14.875 55.94921875 C12.85243496 54.09461759 10.78234766 52.32855464 8.6796875 50.56640625 C0.5634924 43.44237127 -6.31195882 35.2094668 -12.8203125 26.62890625 C-13.3162793 25.97994385 -13.81224609 25.33098145 -14.32324219 24.66235352 C-17.58540154 20.27513887 -20.05693469 15.82758244 -22.3828125 10.87890625 C-18.7528125 9.88890625 -15.1228125 8.89890625 -11.3828125 7.87890625 C-11.3828125 7.21890625 -11.3828125 6.55890625 -11.3828125 5.87890625 C-10.7228125 5.87890625 -10.0628125 5.87890625 -9.3828125 5.87890625 C-9.3828125 5.21890625 -9.3828125 4.55890625 -9.3828125 3.87890625 C-7.7328125 3.54890625 -6.0828125 3.21890625 -4.3828125 2.87890625 C-4.3828125 2.21890625 -4.3828125 1.55890625 -4.3828125 0.87890625 C-2.3828125 -0.12109375 -2.3828125 -0.12109375 0 0 Z " fill="#23A7F2" transform="translate(221.3828125,550.12109375)"/>
<path d="M0 0 C5.28 0 10.56 0 16 0 C17.03898437 1.82402344 18.07796875 3.64804687 19.1484375 5.52734375 C26.11733283 17.75269662 33.09869631 29.96641178 40.27734375 42.0703125 C41.22883541 43.68849559 42.16049385 45.3209877 43 47 C43.33 31.49 43.66 15.98 44 0 C48.62 0 53.24 0 58 0 C58 24.09 58 48.18 58 73 C53.05 73 48.1 73 43 73 C40.24418644 70.06293159 39.48511888 68.57497244 38 65 C36.69088579 62.72433061 35.36076888 60.4730228 34.00390625 58.2265625 C33.27059366 56.97784764 32.53951013 55.72782136 31.81054688 54.4765625 C31.44050537 53.84266602 31.07046387 53.20876953 30.68920898 52.55566406 C30.31739502 51.91854492 29.94558105 51.28142578 29.5625 50.625 C28.44568192 48.71281682 27.32849647 46.80085033 26.2106781 44.88925171 C25.19381543 43.15007876 24.17804708 41.41026613 23.16235352 39.67041016 C20.46841696 35.09768326 17.7305684 30.55094733 15 26 C14.67 41.18 14.34 56.36 14 72 C9.38 72 4.76 72 0 72 C0 48.24 0 24.48 0 0 Z " fill="#F8F8F9" transform="translate(481,431)"/>
<path d="M0 0 C1.31613281 -0.02578125 2.63226562 -0.0515625 3.98828125 -0.078125 C7.79523836 0.25955652 9.64686052 1.01510058 12.6875 3.25 C13.0175 2.59 13.3475 1.93 13.6875 1.25 C17.6475 1.25 21.6075 1.25 25.6875 1.25 C25.6875 25.01 25.6875 48.77 25.6875 73.25 C21.0675 73.25 16.4475 73.25 11.6875 73.25 C11.3575 65.66 11.0275 58.07 10.6875 50.25 C9.0375 51.24 7.3875 52.23 5.6875 53.25 C0.78046857 55.04924486 -4.03732233 54.66773062 -8.9375 53.0625 C-14.67541307 49.98102817 -17.88276588 46.26648448 -20.3125 40.25 C-23.28852307 30.24312242 -23.52500436 19.43704543 -18.625 10 C-13.01443713 3.32797929 -8.78004142 0.06695932 0 0 Z " fill="#2CA1DB" transform="translate(841.3125,450.75)"/>
<path d="M0 0 C4.95 0 9.9 0 15 0 C19.28689883 9.80647737 22.63597757 19.74838655 25.875 29.9375 C26.66634883 32.40830703 27.45945301 34.87854548 28.25280762 37.34870911 C28.77395368 38.97140431 29.29454944 40.59427636 29.8145752 42.21733093 C32.17699661 49.5815099 34.62054121 56.91747188 37.12060547 64.23608398 C39 69.79024899 39 69.79024899 39 72 C34.05 72 29.1 72 24 72 C20 58.5 20 58.5 20 54 C11.75 54 3.5 54 -5 54 C-5.66 57.3 -6.32 60.6 -7 64 C-7.94407253 66.68697566 -8.92545799 69.3624878 -10 72 C-14.62 72 -19.24 72 -24 72 C-23.08409339 66.733537 -22.03617746 61.8110401 -20.15234375 56.8046875 C-18.13534756 51.37195808 -16.20940705 45.91316341 -14.3125 40.4375 C-13.97726318 39.47239502 -13.64202637 38.50729004 -13.29663086 37.51293945 C-11.36301773 31.94319151 -9.437338 26.3707393 -7.515625 20.796875 C-6.90207153 19.0190564 -6.90207153 19.0190564 -6.27612305 17.20532227 C-5.47684883 14.88853648 -4.67880296 12.57132651 -3.88208008 10.25366211 C-3.52009521 9.2044458 -3.15811035 8.15522949 -2.78515625 7.07421875 C-2.46426025 6.14182373 -2.14336426 5.20942871 -1.81274414 4.2487793 C-1 2 -1 2 0 0 Z " fill="#2DA0DF" transform="translate(737,431)"/>
<path d="M0 0 C-0.33 3.63 -0.66 7.26 -1 11 C-4.57721885 12.19240628 -5.71928323 11.67201295 -9.25 10.5625 C-17.18171853 8.30372976 -23.49819193 8.48881539 -31 12 C-35.71758062 15.69201961 -38.52168692 20.28231362 -39.28759766 26.23535156 C-39.40173761 28.66396812 -39.40956262 31.06909588 -39.375 33.5 C-39.38660156 34.31597656 -39.39820313 35.13195312 -39.41015625 35.97265625 C-39.37762177 42.72898298 -38.05210576 47.4348678 -33.75 52.8125 C-26.94966796 58.22185504 -20.1552469 56.91631988 -12 56 C-11.67 50.72 -11.34 45.44 -11 40 C-14.96 40 -18.92 40 -23 40 C-23 36.37 -23 32.74 -23 29 C-14.75 29 -6.5 29 2 29 C2 40.88 2 52.76 2 65 C-9.22105046 70.61052523 -23.02399237 72.56154935 -35.3125 69.0546875 C-37.74275707 67.87660557 -39.83140256 66.60306997 -42 65 C-43.093125 64.278125 -44.18625 63.55625 -45.3125 62.8125 C-52.7162634 55.06437552 -55.34905824 45.12988909 -55.25 34.6875 C-55.25773438 33.88376953 -55.26546875 33.08003906 -55.2734375 32.25195312 C-55.24118729 22.23020156 -53.1827703 14.04307287 -47 6 C-34.99019903 -5.81129187 -14.79311377 -7.39655688 0 0 Z " fill="#F9F9FA" transform="translate(603,434)"/>
<path d="M0 0 C4.95 0 9.9 0 15 0 C15.33 9.57 15.66 19.14 16 29 C22.96432312 20.49619493 29.86672411 12.00551822 36.390625 3.16015625 C38 1 38 1 39 0 C41.69654854 -0.07319621 44.36691458 -0.09242537 47.0625 -0.0625 C47.82111328 -0.05798828 48.57972656 -0.05347656 49.36132812 -0.04882812 C51.24091871 -0.0370068 53.12046899 -0.01907078 55 0 C53.54200707 4.53318493 50.97797892 7.67775371 47.875 11.1875 C46.88174309 12.33501272 45.8895654 13.48346042 44.8984375 14.6328125 C44.40827148 15.1990332 43.91810547 15.76525391 43.41308594 16.34863281 C40.16648992 20.14268524 37.07288203 24.06468174 34 28 C33.4121875 28.66902344 32.824375 29.33804687 32.21875 30.02734375 C30.825547 31.87907694 30.825547 31.87907694 31.05078125 33.87109375 C32.39093421 36.8767866 34.24184215 39.42951531 36.1875 42.0625 C36.61732178 42.65522705 37.04714355 43.2479541 37.48999023 43.85864258 C40.21481691 47.60462253 42.97938904 51.32104867 45.7421875 55.0390625 C46.37487549 55.89234131 47.00756348 56.74562012 47.65942383 57.62475586 C48.9154767 59.31619743 50.17565308 61.00458568 51.44018555 62.68969727 C52.01808838 63.46627686 52.59599121 64.24285645 53.19140625 65.04296875 C53.96786499 66.07973755 53.96786499 66.07973755 54.76000977 67.13745117 C56 69 56 69 57 72 C43.05220779 74.2074466 43.05220779 74.2074466 38.27636719 70.75341797 C35.02128439 67.28577129 32.64619155 63.22971071 30.27050781 59.13085938 C28.19571307 55.65107295 25.81102599 52.4046719 23.4375 49.125 C23.01927979 48.52478027 22.60105957 47.92456055 22.17016602 47.30615234 C20.04883264 44.15074545 20.04883264 44.15074545 17 42 C15.99841931 45.3789982 15.80421884 48.56276528 15.68359375 52.078125 C15.64169922 53.23828125 15.59980469 54.3984375 15.55664062 55.59375 C15.49766602 57.40359375 15.49766602 57.40359375 15.4375 59.25 C15.39431641 60.47203125 15.35113281 61.6940625 15.30664062 62.953125 C15.20062717 65.96861881 15.0998156 68.98429468 15 72 C10.05 72 5.1 72 0 72 C0 48.24 0 24.48 0 0 Z " fill="#F7F7F8" transform="translate(615,431)"/>
<path d="M0 0 C6.3579557 3.24429931 10.6279296 8.39840709 13.29296875 14.96484375 C15.56396591 23.38089205 15.27197496 33.05893759 11.5625 41.0078125 C8.28442829 46.03418912 3.62999356 49.76043757 -1.84375 52.1640625 C-9.5055282 53.36533904 -19.48622012 53.87046487 -26.21875 49.6640625 C-30.88064852 45.75438266 -33.9318922 40.89963589 -35.84375 35.1640625 C-35.96673374 32.38119782 -36.02888571 29.63432862 -36.03125 26.8515625 C-36.04349609 26.10455078 -36.05574219 25.35753906 -36.06835938 24.58789062 C-36.08742619 17.34885769 -34.4019785 11.92182482 -29.84375 6.1640625 C-21.30205939 -1.23873603 -10.96444607 -3.22306519 0 0 Z " fill="#6CC7A0" transform="translate(1280.84375,451.8359375)"/>
<path d="M0 0 C6.32511839 3.96541638 9.86768728 9.5063654 12.375 16.4375 C13.37530859 25.27806513 13.44665819 34.7877489 8.375 42.4375 C5.92856811 45.11955136 3.36554337 47.38150144 0.375 49.4375 C-0.18445312 49.82292969 -0.74390625 50.20835937 -1.3203125 50.60546875 C-4.99170914 51.93090517 -8.62833957 51.76563675 -12.5 51.75 C-13.29019531 51.76611328 -14.08039063 51.78222656 -14.89453125 51.79882812 C-20.8749198 51.80380349 -25.01281907 50.72506039 -29.63671875 46.67578125 C-36.14225798 39.19971868 -38.15275071 33.34497258 -37.83984375 23.39453125 C-37.24178006 15.16300011 -35.43538235 9.50886879 -29.625 3.4375 C-22.16549081 -2.78175344 -8.93497748 -4.07560376 0 0 Z " fill="#4ABBC2" transform="translate(1113.625,452.5625)"/>
<path d="M0 0 C8.90848327 2.67254498 16.64746978 6.04606973 23.75 12.125 C21.86668753 16.30524964 19.91720246 18.04139877 15.75 20.125 C11.77565973 20.32292531 8.34034363 19.33752371 4.625 18 C0.38223193 16.70872276 -2.54600442 17.30228172 -6.55175781 19.23632812 C-9.33449743 20.7568702 -12.07593578 22.3353411 -14.8125 23.9375 C-15.81812988 24.51628906 -16.82375977 25.09507812 -17.85986328 25.69140625 C-19.95343839 26.89690717 -22.04488967 28.10610352 -24.13427734 29.31884766 C-28.0548292 31.5915512 -31.98931209 33.83930187 -35.92553711 36.0847168 C-37.67082219 37.08055686 -39.41519055 38.07800603 -41.15844727 39.07739258 C-46.49800298 42.13784999 -51.86252522 45.14970695 -57.25 48.125 C-56.50723627 52.25224372 -55.36179339 55.46997298 -53.25 59.125 C-52.26 59.785 -51.27 60.445 -50.25 61.125 C-58.66549897 66.63220153 -66.97984973 71.26243739 -76.25 75.125 C-87.36805707 58.19957291 -87.36805707 58.19957291 -87.20703125 49.9140625 C-85.74970248 47.18974994 -83.79106089 46.61709516 -81 45.375 C-76.59135973 43.29730553 -72.43623409 41.098222 -68.3125 38.5 C-62.86690203 35.08605369 -57.34075372 31.85771752 -51.75 28.6875 C-42.77199316 23.58905405 -33.8453132 18.40723861 -24.9375 13.1875 C-24.31407715 12.82278595 -23.6906543 12.4580719 -23.04833984 12.08230591 C-14.74565867 7.23244168 -14.74565867 7.23244168 -6.59765625 2.12890625 C-3.25 0.125 -3.25 0.125 0 0 Z " fill="#0755AD" transform="translate(269.25,475.875)"/>
<path d="M0 0 C0.99 0 1.98 0 3 0 C4.82127015 3.6425403 5.03909723 7.06580795 4 11 C1.69949029 13.60057619 -1.10360911 15.1946015 -4.10205078 16.90722656 C-6.38252847 18.22024665 -8.62530526 19.58944389 -10.87109375 20.9609375 C-15.89059248 24.01445044 -20.93487143 27.02286969 -26 30 C-26.69303223 30.41330566 -27.38606445 30.82661133 -28.10009766 31.25244141 C-32.77034341 34 -32.77034341 34 -35 34 C-35.33 34.99 -35.66 35.98 -36 37 C-38.40625 38.6484375 -38.40625 38.6484375 -41.5 40.375 C-43.13195312 41.29539062 -43.13195312 41.29539062 -44.796875 42.234375 C-46.38242187 43.10835937 -46.38242187 43.10835937 -48 44 C-49.24523437 44.68835938 -49.24523437 44.68835938 -50.515625 45.390625 C-51.97764496 46.19831435 -53.43987621 47.00562136 -54.90234375 47.8125 C-59.81331501 50.59264016 -64.51459179 53.57405907 -69 57 C-74.11714234 51.55308626 -78.8331745 46.15504924 -82.80859375 39.8125 C-84.00331546 37.86169836 -84.00331546 37.86169836 -86 36 C-85.030625 35.54625 -84.06125 35.0925 -83.0625 34.625 C-79.92920418 33.34213779 -79.92920418 33.34213779 -79 31 C-77.34561387 30.30341637 -75.67745682 29.63903117 -74 29 C-73.01 28.34 -72.02 27.68 -71 27 C-70.01 27 -69.02 27 -68 27 C-68 26.34 -68 25.68 -68 25 C-67.29875 24.62488281 -66.5975 24.24976563 -65.875 23.86328125 C-61.41954645 21.45999992 -57.00438795 19.05942766 -52.75 16.3125 C-49.28580805 14.09768875 -45.81090597 12.53901972 -42 11 C-41.319375 10.608125 -40.63875 10.21625 -39.9375 9.8125 C-37.1126675 8.62789282 -35.04567009 8.70140489 -32 9 C-30.865625 9.495 -29.73125 9.99 -28.5625 10.5 C-24.4721351 12.2222589 -22.40808095 12.49877369 -18 12 C-14.82826515 10.48772145 -12.00503344 8.56610947 -9.125 6.5625 C-7.96871094 5.7880957 -7.96871094 5.7880957 -6.7890625 4.99804688 C-3.22637662 2.71032372 -3.22637662 2.71032372 0 0 Z " fill="#0E172D" transform="translate(307,513)"/>
<path d="M0 0 C4.94631844 3.33215727 7.30805185 7.10720742 8.75 12.875 C8.75 17.825 8.75 22.775 8.75 27.875 C-1.81 27.875 -12.37 27.875 -23.25 27.875 C-21.93 30.845 -20.61 33.815 -19.25 36.875 C-19.25 37.535 -19.25 38.195 -19.25 38.875 C-11.32319288 41.24739358 -2.32308951 39.95141193 5.75 38.875 C6.245 43.33 6.245 43.33 6.75 47.875 C-2.19393287 51.90853835 -11.26076716 53.5461351 -20.9375 50.8125 C-27.16086431 48.3699968 -31.81049864 45.02162832 -34.63671875 38.84375 C-38.03963089 28.62307353 -38.53523961 19.87926239 -34.25 9.875 C-31.68441616 5.35801755 -28.37734187 0.86946928 -23.625 -1.49609375 C-16.16822121 -3.4706684 -6.92955811 -3.55686621 0 0 Z " fill="#76CD9F" transform="translate(1371.25,453.125)"/>
<path d="M0 0 C0.89847656 -0.01160156 1.79695313 -0.02320313 2.72265625 -0.03515625 C8.65482584 -0.00925158 13.07144424 0.97781066 18.5 3.375 C17.99800802 7.10408331 17.45792977 10.73647686 16.5 14.375 C15.74976563 14.230625 14.99953125 14.08625 14.2265625 13.9375 C1.83597021 11.31797511 1.83597021 11.31797511 -9.9375 14.5625 C-15.39160879 18.48024011 -16.91237391 22.9791349 -18.5 29.375 C-19.52736605 37.89340355 -19.677482 46.90930125 -15.10546875 54.4140625 C-11.79744898 58.45451487 -8.40851595 60.91885838 -3.18359375 61.73828125 C3.45222868 61.94065786 10.00770549 60.62437626 16.5 59.375 C17.92258812 63.19820557 18.74042276 66.28781305 18.5 70.375 C7.63365301 74.61103357 -4.2118099 76.60807129 -15.5 72.375 C-23.36435621 68.5083582 -28.38653983 62.94458914 -31.49609375 54.75 C-35.49985637 41.87665798 -36.01203691 28.73981932 -30.4375 16.1875 C-26.48971676 8.89571212 -20.59165134 3.68067733 -12.77270508 0.9440918 C-8.53949178 -0.11591682 -4.34069339 -0.05604913 0 0 Z " fill="#71CCA1" transform="translate(1222.5,430.625)"/>
<path d="M0 0 C4.64851946 2.65464079 6.04598417 7.43528122 7.44602966 12.30438232 C8.1998666 15.83545031 7.99945443 19.44007384 7.9765625 23.03515625 C7.97514755 23.87294617 7.9737326 24.71073608 7.97227478 25.57391357 C7.96668822 28.24332282 7.95413819 30.91264745 7.94140625 33.58203125 C7.93638951 35.39453004 7.93182691 37.20703014 7.92773438 39.01953125 C7.91672319 43.45706373 7.8994678 47.89453316 7.87890625 52.33203125 C3.25890625 52.33203125 -1.36109375 52.33203125 -6.12109375 52.33203125 C-6.13567627 51.19660889 -6.15025879 50.06118652 -6.1652832 48.89135742 C-6.22323051 44.68107516 -6.30046316 40.47132975 -6.38354492 36.26147461 C-6.41681115 34.43897206 -6.44483781 32.61636606 -6.4675293 30.79370117 C-6.50104456 28.17451875 -6.55335727 25.55628577 -6.609375 22.9375 C-6.61576492 22.12178024 -6.62215485 21.30606049 -6.6287384 20.46562195 C-6.63170055 16.26516737 -6.63170055 16.26516737 -8.43717957 12.61616516 C-11.24818781 10.47252206 -13.71473343 10.97964915 -17.12109375 11.33203125 C-19.88551344 12.73962466 -19.88551344 12.73962466 -22.12109375 14.33203125 C-22.78109375 14.33203125 -23.44109375 14.33203125 -24.12109375 14.33203125 C-24.12109375 26.87203125 -24.12109375 39.41203125 -24.12109375 52.33203125 C-28.74109375 52.33203125 -33.36109375 52.33203125 -38.12109375 52.33203125 C-38.12109375 35.17203125 -38.12109375 18.01203125 -38.12109375 0.33203125 C-34.16109375 0.33203125 -30.20109375 0.33203125 -26.12109375 0.33203125 C-26.12109375 1.98203125 -26.12109375 3.63203125 -26.12109375 5.33203125 C-25.56164063 4.89890625 -25.0021875 4.46578125 -24.42578125 4.01953125 C-16.91543524 -1.19665762 -8.91849415 -2.80858655 0 0 Z " fill="#4FBAB6" transform="translate(1171.12109375,451.66796875)"/>
<path d="M0 0 C4.29 0 8.58 0 13 0 C13.01981934 1.10512939 13.03963867 2.21025879 13.06005859 3.34887695 C13.13610449 7.44725413 13.22482329 11.54527579 13.31738281 15.64331055 C13.35567679 17.41732771 13.39052895 19.19142264 13.421875 20.96557617 C13.46751672 23.51509399 13.52551185 26.0640763 13.5859375 28.61328125 C13.59748871 29.40712723 13.60903992 30.20097321 13.62094116 31.01887512 C13.72355385 34.84323908 13.83064066 36.74596099 16 40 C18.03016796 40.47796224 18.03016796 40.47796224 20.3125 40.375 C21.07175781 40.38273437 21.83101562 40.39046875 22.61328125 40.3984375 C25.83885929 39.8599613 27.46824291 39.11341069 30 37 C30.52523427 34.0234132 30.72180719 31.59595923 30.70703125 28.61328125 C30.72215256 27.79627243 30.73727386 26.97926361 30.75285339 26.13749695 C30.79582961 23.52888608 30.80457742 20.92143003 30.8125 18.3125 C30.83563677 16.54358888 30.8610004 14.77470537 30.88867188 13.00585938 C30.95162163 8.6704704 30.98387941 4.33580582 31 0 C35.29 0 39.58 0 44 0 C44 16.83 44 33.66 44 51 C40.04 51 36.08 51 32 51 C31.67 50.01 31.34 49.02 31 48 C29.39125 48.9590625 29.39125 48.9590625 27.75 49.9375 C22.70906733 52.79066789 18.8680131 53.3978314 13 53 C7.13371883 51.17942998 4.45039539 48.87114644 1 44 C0.08964496 41.26893489 -0.12215713 39.70106761 -0.11352539 36.89575195 C-0.11344986 36.07512772 -0.11337433 35.25450348 -0.11329651 34.40901184 C-0.10813522 33.52767075 -0.10297394 32.64632965 -0.09765625 31.73828125 C-0.0962413 30.83248825 -0.09482635 29.92669525 -0.09336853 28.99345398 C-0.08777001 26.09976909 -0.07521781 23.20616151 -0.0625 20.3125 C-0.05748481 18.35091258 -0.05292193 16.38932394 -0.04882812 14.42773438 C-0.03780107 9.61845979 -0.02053747 4.809243 0 0 Z " fill="#2A9ED9" transform="translate(876,452)"/>
<path d="M0 0 C1.27351308 2.54702616 0.80191925 3.4282945 0.0625 6.125 C-0.13214844 6.84945313 -0.32679688 7.57390625 -0.52734375 8.3203125 C-0.76130859 9.15175781 -0.76130859 9.15175781 -1 10 C-1.9075 9.835 -2.815 9.67 -3.75 9.5 C-9.13782475 8.71126689 -14.56912556 8.91974077 -20 9 C-20.33 10.65 -20.66 12.3 -21 14 C-17.76267498 16.74777831 -14.63504801 17.92266476 -10.625 19.25 C-5.81697858 21.08342999 -1.96755886 22.61021348 1.10546875 26.84375 C3.01986862 31.45837326 2.78928068 36.14288812 2 41 C-0.14817289 45.53503166 -2.44541156 47.92973253 -7 50 C-15.87034204 52.76289342 -24.07787943 52.56728869 -33 50 C-33.99 49.34 -34.98 48.68 -36 48 C-35.125 40.25 -35.125 40.25 -34 38 C-33.00871094 38.32742188 -32.01742187 38.65484375 -30.99609375 38.9921875 C-26.98177322 40.13913622 -23.24139756 40.19896279 -19.0625 40.125 C-18.03672852 40.11146484 -18.03672852 40.11146484 -16.99023438 40.09765625 C-15.32666713 40.07438958 -13.66328369 40.03853167 -12 40 C-12 37.36 -12 34.72 -12 32 C-12.6290625 31.82984375 -13.258125 31.6596875 -13.90625 31.484375 C-29.61837682 27.03576078 -29.61837682 27.03576078 -34.14453125 20.96484375 C-36.10849512 16.45400436 -35.88601619 11.75516601 -35 7 C-32.89377789 2.63437599 -29.69094726 0.03054434 -25.3125 -1.9375 C-16.98874794 -4.4901173 -7.90083525 -3.54399606 0 0 Z " fill="#F6F6F7" transform="translate(708,453)"/>
<path d="M0 0 C0.76828125 -0.00708984 1.5365625 -0.01417969 2.328125 -0.02148438 C7.58757306 0.03665578 11.30025527 1.08137797 16 3.4375 C15.34 6.4075 14.68 9.3775 14 12.4375 C12.535625 12.2725 11.07125 12.1075 9.5625 11.9375 C4.67141164 11.44978464 -0.08622625 11.28150718 -5 11.4375 C-6.29633621 12.50395115 -6.29633621 12.50395115 -6.0625 15 C-6.041875 15.804375 -6.02125 16.60875 -6 17.4375 C-5.45061768 17.64318604 -4.90123535 17.84887207 -4.33520508 18.06079102 C-1.81836003 19.01790858 0.68402303 20.00846973 3.1875 21 C4.05181641 21.32291016 4.91613281 21.64582031 5.80664062 21.97851562 C11.86810029 24.41703388 14.8414578 26.6607772 18 32.4375 C19.04703525 36.74274362 18.30835298 40.54670251 16.875 44.6875 C14.0252053 48.8671989 10.89407029 51.80614324 6 53.4375 C2.94203058 53.68918473 -0.12023211 53.66878288 -3.1875 53.6875 C-4.01314453 53.708125 -4.83878906 53.72875 -5.68945312 53.75 C-11.47656799 53.78648299 -15.69663381 52.76192809 -21 50.4375 C-20.34 47.1375 -19.68 43.8375 -19 40.4375 C-18.13375 40.7675 -17.2675 41.0975 -16.375 41.4375 C-10.48731612 43.13703761 -4.05932061 42.97191479 2 42.4375 C2.66 41.7775 3.32 41.1175 4 40.4375 C4.03639772 37.88890098 4.03639772 37.88890098 3 35.4375 C0.98468811 34.10309745 0.98468811 34.10309745 -1.5625 33.375 C-2.46355469 33.05273438 -3.36460937 32.73046875 -4.29296875 32.3984375 C-5.18628906 32.08132813 -6.07960938 31.76421875 -7 31.4375 C-12.99057432 28.93549442 -16.98821006 26.46107988 -20 20.4375 C-20.53718762 15.54116692 -20.52418708 11.5697441 -18.4375 7.0625 C-12.88322285 1.08097076 -7.85117089 -0.20418314 0 0 Z " fill="#33A6D5" transform="translate(971,450.5625)"/>
<path d="M0 0 C0 5.28 0 10.56 0 16 C4.62 16 9.24 16 14 16 C14 19.3 14 22.6 14 26 C9.38 26 4.76 26 0 26 C0.11388033 30.39638015 0.24064153 34.79173867 0.375 39.1875 C0.4059375 40.43337891 0.436875 41.67925781 0.46875 42.96289062 C0.50742188 44.16494141 0.54609375 45.36699219 0.5859375 46.60546875 C0.6173584 47.71043701 0.6487793 48.81540527 0.68115234 49.95385742 C0.90385447 53.4186967 0.90385447 53.4186967 3 58 C8.445 57.505 8.445 57.505 14 57 C14.495 61.95 14.495 61.95 15 67 C8.16499946 69.32680869 2.28480675 69.87594847 -4.75 68 C-9.11409619 65.31440234 -11.20561446 62.82621916 -13 58 C-13.60413775 52.48235604 -13.47361814 47.04003205 -13.3125 41.5 C-13.2873814 39.99482878 -13.26457452 38.48961711 -13.24414062 36.984375 C-13.18943666 33.3220668 -13.10336354 29.6612956 -13 26 C-15.64 26 -18.28 26 -21 26 C-21 22.7 -21 19.4 -21 16 C-18.36 16 -15.72 16 -13 16 C-13 11.71 -13 7.42 -13 3 C-4 0 -4 0 0 0 Z " fill="#41B4CC" transform="translate(1035,436)"/>
<path d="M0 0 C1.12728516 -0.01836914 1.12728516 -0.01836914 2.27734375 -0.03710938 C6.83361483 -0.04903679 10.45947281 0.45899144 14.75 2.1875 C14.42 5.8175 14.09 9.4475 13.75 13.1875 C11.275 12.6925 11.275 12.6925 8.75 12.1875 C0.98157156 11.17670592 0.98157156 11.17670592 -6.171875 13.45703125 C-11.18684454 19.51924443 -10.76294918 25.65813877 -10.25 33.1875 C-8.73926819 37.56862225 -7.14280172 39.75189678 -3.25 42.1875 C2.63866475 43.10482969 8.18467711 42.12326448 13.75 40.1875 C14.41 43.4875 15.07 46.7875 15.75 50.1875 C7.49915361 54.60074342 -0.98670671 55.68182874 -10.0625 53 C-14.0601968 51.50527033 -16.50158445 49.50176581 -19.25 46.1875 C-19.806875 45.5275 -20.36375 44.8675 -20.9375 44.1875 C-26.06692928 36.37122681 -25.13495655 26.17075042 -24.25 17.1875 C-22.70990308 10.82525496 -19.89898806 7.31750544 -14.5625 3.625 C-9.47492489 0.60665712 -5.90878854 0.00496537 0 0 Z " fill="#2B9DDB" transform="translate(801.25,450.8125)"/>
<path d="M0 0 C0 3.96 0 7.92 0 12 C-3.02734375 12.45572917 -6.0546875 12.91145833 -9.08203125 13.3671875 C-12.17321793 13.85132338 -12.17321793 13.85132338 -15 16 C-15.33777149 18.75900757 -15.48897979 21.30483257 -15.51171875 24.0703125 C-15.52966995 24.86654022 -15.54762115 25.66276794 -15.56611633 26.48312378 C-15.62036969 29.0303617 -15.65416212 31.57741071 -15.6875 34.125 C-15.72065993 35.8502868 -15.75514834 37.57554861 -15.79101562 39.30078125 C-15.87610435 43.53371813 -15.94284307 47.76659753 -16 52 C-20.62 52 -25.24 52 -30 52 C-30 34.84 -30 17.68 -30 0 C-26.04 0 -22.08 0 -18 0 C-18 1.98 -18 3.96 -18 6 C-17.34 6 -16.68 6 -16 6 C-16 5.34 -16 4.68 -16 4 C-10.7508649 -0.73259787 -6.7530655 -1.56767592 0 0 Z " fill="#74CFA3" transform="translate(1332,452)"/>
<path d="M0 0 C4.62 0 9.24 0 14 0 C14 17.16 14 34.32 14 52 C9.38 52 4.76 52 0 52 C0 34.84 0 17.68 0 0 Z " fill="#42AFC3" transform="translate(1055,452)"/>
<path d="M0 0 C4.29 0 8.58 0 13 0 C13 16.83 13 33.66 13 51 C8.71 51 4.42 51 0 51 C0 34.17 0 17.34 0 0 Z " fill="#37B3D6" transform="translate(996,452)"/>
<path d="M0 0 C4.29 0 8.58 0 13 0 C13 16.83 13 33.66 13 51 C8.71 51 4.42 51 0 51 C0 34.17 0 17.34 0 0 Z " fill="#2FA7DB" transform="translate(930,452)"/>
<path d="M0 0 C3.52488367 1.96667329 5.70121477 4.10364431 7 8 C7.14703064 10.43448818 7.22105339 12.8737477 7.25 15.3125 C7.27578125 16.60800781 7.3015625 17.90351563 7.328125 19.23828125 C6.97889775 23.24192221 6.09914661 25.60210081 4 29 C1.24631394 31.23271843 -0.48258624 31.93532328 -4 32.375 C-7.51741376 31.93532328 -9.24631394 31.23271843 -12 29 C-14.80493784 24.40640614 -15.43206179 20.85120141 -15.4375 15.5 C-15.45683594 14.2315625 -15.47617188 12.963125 -15.49609375 11.65625 C-14.92055625 7.41449329 -13.68164647 5.2975038 -11 2 C-7.30751438 -0.46165708 -4.28488597 -0.80846905 0 0 Z " fill="#111A2C" transform="translate(1105,462)"/>
<path d="M0 0 C3.3194895 0.53088496 4.98187239 1.91097727 7.22265625 4.35546875 C10.63898882 9.66708122 9.76894868 16.31253031 9.22265625 22.35546875 C8.093029 26.4587634 6.56173538 29.42555269 2.97265625 31.91796875 C-0.7997442 32.51812337 -4.1198595 32.55677634 -7.77734375 31.35546875 C-11.38668937 27.83867045 -12.679501 24.99245314 -12.98046875 19.95703125 C-12.9959375 18.64476562 -13.01140625 17.3325 -13.02734375 15.98046875 C-13.053125 14.67335938 -13.07890625 13.36625 -13.10546875 12.01953125 C-12.69052052 7.38594273 -11.1788035 5.1247149 -8.36328125 1.5703125 C-5.71452757 -0.45865891 -3.22233304 -0.11003088 0 0 Z " fill="#111A2C" transform="translate(1271.77734375,461.64453125)"/>
<path d="M0 0 C0.99 0.66 1.98 1.32 3 2 C3.34057617 4.61376953 3.34057617 4.61376953 3.29296875 7.8828125 C3.28330078 9.04941406 3.27363281 10.21601563 3.26367188 11.41796875 C3.23853516 12.64128906 3.21339844 13.86460937 3.1875 15.125 C3.16719727 16.97158203 3.16719727 16.97158203 3.14648438 18.85546875 C3.11103543 21.90407843 3.06162079 24.951825 3 28 C-4.96761305 32.87656317 -4.96761305 32.87656317 -10.1328125 31.8515625 C-13.2290256 30.43948205 -14.58699876 28.40094173 -16.16015625 25.4453125 C-18.52361145 18.56381038 -17.47198999 10.70968713 -15 4 C-11.05957373 -0.92553284 -5.89024852 -0.8585786 0 0 Z " fill="#0F182B" transform="translate(850,462)"/>
<path d="M0 0 C2.31 0 4.62 0 7 0 C8.4018724 2.43418803 9.796465 4.8721264 11.1875 7.3125 C11.76854492 8.31893555 11.76854492 8.31893555 12.36132812 9.34570312 C15.65017152 15.13515473 18.21113311 20.86449285 21 27 C21.33 18.09 21.66 9.18 22 0 C23.65 0 25.3 0 27 0 C27 11.55 27 23.1 27 35 C24.69 35 22.38 35 20 35 C18.76721157 32.87703432 17.53877818 30.75172303 16.3125 28.625 C15.97283203 28.04105469 15.63316406 27.45710937 15.28320312 26.85546875 C12.28917017 21.65088809 9.70039767 16.40079533 7 11 C6.67 18.92 6.34 26.84 6 35 C4.02 35 2.04 35 0 35 C0 23.45 0 11.9 0 0 Z " fill="#EDEDF0" transform="translate(769,569)"/>
<path d="M0 0 C0.639375 0.33 1.27875 0.66 1.9375 1 C1.9375 2.32 1.9375 3.64 1.9375 5 C1.05707031 4.95359375 0.17664063 4.9071875 -0.73046875 4.859375 C-2.47263672 4.80523438 -2.47263672 4.80523438 -4.25 4.75 C-5.39855469 4.70359375 -6.54710937 4.6571875 -7.73046875 4.609375 C-11.86283752 5.0938262 -13.38508308 5.80693241 -16.0625 9 C-16.75513292 11.85762697 -16.71692433 14.57332803 -16.625 17.5 C-16.63595703 18.25925781 -16.64691406 19.01851562 -16.65820312 19.80078125 C-16.61047927 23.43415761 -16.44845696 25.4382869 -14.35546875 28.484375 C-10.42341217 31.08341751 -6.70601376 30.75560454 -2.0625 31 C-2.0625 27.7 -2.0625 24.4 -2.0625 21 C-4.0425 21 -6.0225 21 -8.0625 21 C-8.0625 19.35 -8.0625 17.7 -8.0625 16 C-4.1025 16 -0.1425 16 3.9375 16 C3.9375 21.94 3.9375 27.88 3.9375 34 C-10.0625 37.5 -10.0625 37.5 -16.3125 34.375 C-19.69548959 31.45332717 -22.56681077 28.56106103 -23.44628906 24.01708984 C-23.59901107 21.8309401 -23.60870119 19.69070626 -23.5625 17.5 C-23.57796875 16.76652344 -23.5934375 16.03304687 -23.609375 15.27734375 C-23.57220206 10.08242603 -22.42490319 7.13882404 -19.0625 3 C-13.5943137 -1.80537584 -6.76997203 -2.21060311 0 0 Z " fill="#EBEBEE" transform="translate(825.0625,569)"/>
<path d="M0 0 C2.743125 -0.020625 5.48625 -0.04125 8.3125 -0.0625 C9.17270752 -0.071604 10.03291504 -0.08070801 10.91918945 -0.09008789 C11.60198975 -0.09258545 12.28479004 -0.09508301 12.98828125 -0.09765625 C13.68477783 -0.10289307 14.38127441 -0.10812988 15.09887695 -0.11352539 C17 0 17 0 20 1 C20.66 0.67 21.32 0.34 22 0 C24.2421875 -0.2734375 24.2421875 -0.2734375 26.875 -0.375 C27.73867187 -0.42398438 28.60234375 -0.47296875 29.4921875 -0.5234375 C32 0 32 0 34.3046875 1.87890625 C36.7460273 6.37344657 36.43461274 10.28890332 36.25 15.3125 C36.23195313 16.24384766 36.21390625 17.17519531 36.1953125 18.13476562 C36.14834888 20.42424197 36.08269475 22.71158184 36 25 C34.35 25 32.7 25 31 25 C30.97494385 24.42967041 30.9498877 23.85934082 30.92407227 23.27172852 C30.80843451 20.70173843 30.68556376 18.13214473 30.5625 15.5625 C30.52318359 14.66466797 30.48386719 13.76683594 30.44335938 12.84179688 C30.40146484 11.98779297 30.35957031 11.13378906 30.31640625 10.25390625 C30.27974854 9.46314697 30.24309082 8.6723877 30.20532227 7.85766602 C30.19436743 5.98598559 30.19436743 5.98598559 29 5 C26.36 5 23.72 5 21 5 C20.67 11.6 20.34 18.2 20 25 C18.68 25 17.36 25 16 25 C15.97494385 24.42967041 15.9498877 23.85934082 15.92407227 23.27172852 C15.80843451 20.70173843 15.68556376 18.13214473 15.5625 15.5625 C15.52318359 14.66466797 15.48386719 13.76683594 15.44335938 12.84179688 C15.40146484 11.98779297 15.35957031 11.13378906 15.31640625 10.25390625 C15.27974854 9.46314697 15.24309082 8.6723877 15.20532227 7.85766602 C15.19436743 5.98598559 15.19436743 5.98598559 14 5 C11.36 5 8.72 5 6 5 C5.67 11.6 5.34 18.2 5 25 C3.35 25 1.7 25 0 25 C0 16.75 0 8.5 0 0 Z " fill="#66BB9A" transform="translate(1001,579)"/>
<path d="M0 0 C1.32 0 2.64 0 4 0 C4.33 3.3 4.66 6.6 5 10 C5.33 9.67 5.66 9.34 6 9 C9.85920713 8.62892239 12.3532913 8.69070454 15.875 10.375 C19.03682907 14.28078886 19.28040104 18.06182615 19 23 C17.51829549 27.14877262 16.67113187 28.55257875 13 31 C8.44820502 31.31034966 4.60634698 30.65804957 0 30 C0 20.1 0 10.2 0 0 Z " fill="#D4D5DA" transform="translate(646,573)"/>
<path d="M0 0 C1.65 0 3.3 0 5 0 C5 5.28 5 10.56 5 16 C6.32 16 7.64 16 9 16 C9.26296875 15.29488281 9.5259375 14.58976563 9.796875 13.86328125 C11.08036743 10.80873595 12.557149 8.03560742 14.25 5.1875 C15.09304688 3.72376953 15.09304688 3.72376953 15.953125 2.23046875 C18 0 18 0 21.234375 -0.32421875 C22.14703125 -0.21722656 23.0596875 -0.11023438 24 0 C23.44570313 0.96421875 22.89140625 1.9284375 22.3203125 2.921875 C21.58848403 4.19788361 20.8567164 5.47392712 20.125 6.75 C19.76019531 7.38421875 19.39539063 8.0184375 19.01953125 8.671875 C17.2603169 11.74250368 15.53126626 14.80851875 14 18 C15.27045696 19.75027325 16.54138106 21.50020744 17.8125 23.25 C18.52019531 24.22453125 19.22789062 25.1990625 19.95703125 26.203125 C21.19725557 27.90102292 22.45987162 29.58325181 23.76171875 31.234375 C25 33 25 33 25 35 C22.265625 35.32421875 22.265625 35.32421875 19 35 C16.734375 32.76953125 16.734375 32.76953125 14.75 29.8125 C14.08484375 28.84957031 13.4196875 27.88664063 12.734375 26.89453125 C11.18058203 24.30137676 10.01728086 21.83904403 9 19 C7.68 19 6.36 19 5 19 C5 24.28 5 29.56 5 35 C3.35 35 1.7 35 0 35 C0 23.45 0 11.9 0 0 Z " fill="#F4F5F6" transform="translate(835,569)"/>
<path d="M0 0 C2.44331582 1.20095184 2.86813176 2.35855785 3.90625 4.84375 C5.29963364 8.13883319 5.69956541 8.81012694 8.84375 10.90625 C0.42825103 16.41345153 -7.88609973 21.04368739 -17.15625 24.90625 C-18.16431851 23.30714132 -19.16245385 21.70176738 -20.15625 20.09375 C-20.713125 19.20042969 -21.27 18.30710937 -21.84375 17.38671875 C-23.15625 14.90625 -23.15625 14.90625 -23.15625 11.90625 C-22.47820312 11.54273438 -21.80015625 11.17921875 -21.1015625 10.8046875 C-15.36630928 7.70669754 -9.79626056 4.49169352 -4.34765625 0.91015625 C-2.15625 -0.09375 -2.15625 -0.09375 0 0 Z " fill="#0671E2" transform="translate(210.15625,526.09375)"/>
<path d="M0 0 C0.99 0 1.98 0 3 0 C3 9.9 3 19.8 3 30 C-1.62 30 -6.24 30 -11 30 C-15.39494554 24.50631808 -15.65698524 23.13518936 -15.375 16.60546875 C-15 14 -15 14 -13.5 10.8125 C-9.78449476 8.1187587 -7.5377712 8.4958032 -3 9 C-2.01 9.66 -1.02 10.32 0 11 C0 7.37 0 3.74 0 0 Z " fill="#E9EAEC" transform="translate(628,573)"/>
<path d="M0 0 C13 0 13 0 18 3 C20.33909307 6.5086396 20.41291057 7.87089433 20 12 C17.73529412 16.63235294 17.73529412 16.63235294 15 18 C11.32984725 18.1377685 7.67388652 18.04271961 4 18 C4 21.63 4 25.26 4 29 C2.68 29 1.36 29 0 29 C0 19.43 0 9.86 0 0 Z " fill="#E0E1E4" transform="translate(482,574)"/>
<path d="M0 0 C2.60546875 0.5078125 2.60546875 0.5078125 5.79296875 2.4453125 C8.33205769 6.73549725 7.9736646 9.57398815 7.60546875 14.5078125 C2.32546875 14.5078125 -2.95453125 14.5078125 -8.39453125 14.5078125 C-7.73453125 16.4878125 -7.07453125 18.4678125 -6.39453125 20.5078125 C-2.10453125 20.8378125 2.18546875 21.1678125 6.60546875 21.5078125 C6.27546875 22.8278125 5.94546875 24.1478125 5.60546875 25.5078125 C-6.36186572 26.3822862 -6.36186572 26.3822862 -10.4375 24.62890625 C-13.73292829 21.39146204 -13.79617089 17.4496379 -14.01953125 13.0078125 C-13.6877526 5.92717054 -13.6877526 5.92717054 -11.58203125 2.6953125 C-7.55171062 -0.07059381 -4.81431965 -0.29886465 0 0 Z " fill="#5EB99A" transform="translate(988.39453125,578.4921875)"/>
<path d="M0 0 C0.67611328 0.01417969 1.35222656 0.02835938 2.04882812 0.04296875 C6.94047619 0.1889881 6.94047619 0.1889881 9.3125 1.375 C9.3125 2.695 9.3125 4.015 9.3125 5.375 C7.83136719 5.34019531 7.83136719 5.34019531 6.3203125 5.3046875 C4.39832031 5.27761719 4.39832031 5.27761719 2.4375 5.25 C1.16132812 5.22679687 -0.11484375 5.20359375 -1.4296875 5.1796875 C-4.77343338 5.01858476 -4.77343338 5.01858476 -6.6875 7.375 C-6.82283546 9.91057806 -6.82283546 9.91057806 -5.6875 12.375 C-3.07345709 13.93261732 -3.07345709 13.93261732 0.125 14.9375 C4.44845039 16.45939667 7.46965561 17.68607097 10.3125 21.375 C11.19766817 25.33386237 10.88384071 29.13709513 9.1875 32.8125 C5.06882108 36.24473244 0.45355597 36.69748591 -4.71875 36.578125 C-7.54888008 36.28612745 -10.05713353 35.42714659 -12.6875 34.375 C-12.6875 33.055 -12.6875 31.735 -12.6875 30.375 C-11.09808594 30.40980469 -11.09808594 30.40980469 -9.4765625 30.4453125 C-8.0885487 30.46406944 -6.7005273 30.48226972 -5.3125 30.5 C-4.61382813 30.51675781 -3.91515625 30.53351562 -3.1953125 30.55078125 C-1.35852514 30.56844267 0.47851963 30.47803261 2.3125 30.375 C4.59978734 28.53616119 4.59978734 28.53616119 4.4375 25.75 C4.39625 24.96625 4.355 24.1825 4.3125 23.375 C3.50425781 23.07207031 2.69601562 22.76914062 1.86328125 22.45703125 C-9.73424728 17.91035239 -9.73424728 17.91035239 -12.6875 13.375 C-13.37117554 10.5302145 -13.58821791 8.17252385 -12.6875 5.375 C-8.87932988 0.33116178 -6.19078788 -0.2304113 0 0 Z " fill="#59B6A0" transform="translate(897.6875,568.625)"/>
<path d="M0 0 C2.41220316 0.4158971 3.68172296 0.63677387 5.32592773 2.51318359 C7.57676875 4.51225342 8.991418 4.4097393 11.97265625 4.4765625 C12.95556641 4.5075 13.93847656 4.5384375 14.95117188 4.5703125 C16.4912793 4.59738281 16.4912793 4.59738281 18.0625 4.625 C20.07429301 4.67688377 22.08601629 4.73154973 24.09765625 4.7890625 C25.07750488 4.81645508 26.05735352 4.84384766 27.06689453 4.87207031 C31.39882635 5.0610109 35.69422803 5.49931501 40 6 C40.625 7.875 40.625 7.875 41 10 C38.1095514 12.8904486 35.9514082 12.2861349 31.91015625 12.34375 C31.20982773 12.3583728 30.50949921 12.37299561 29.78794861 12.38806152 C27.54619039 12.43462211 25.30452132 12.46878411 23.0625 12.5 C20.11555641 12.5411275 17.16923846 12.59480954 14.22265625 12.65625 C12.91047119 12.67494141 11.59828613 12.69363281 10.24633789 12.71289062 C6.85335452 12.75164427 6.85335452 12.75164427 4 15 C1.248286 14.79362145 -0.50200666 14.3262715 -2.8125 12.8125 C-4.61821206 10.05641317 -4.45178153 8.22701096 -4 5 C-2 2.125 -2 2.125 0 0 Z " fill="#0E7A9A" transform="translate(717,570)"/>
<path d="M0 0 C3.37495058 0.02428022 5.14420406 0.59958588 7.75 2.75 C10.48324942 5.54991404 11.19379054 6.33035679 11.625 10.125 C11.23003151 14.23267229 9.9067368 16.20426614 7.3125 19.375 C4.10842697 21.72465355 1.20975235 21.92061533 -2.6875 21.375 C-5.61233867 19.54952064 -8.12179205 17.50641589 -9.6875 14.375 C-10.19448467 9.22065588 -10.19448467 9.22065588 -9.6875 6.375 C-7.25 3.4375 -7.25 3.4375 -4.6875 1.375 C-3.6875 0.375 -3.6875 0.375 0 0 Z " fill="#34A2AF" transform="translate(343.6875,448.625)"/>
<path d="M0 0 C3.6578218 2.03993908 5.66946174 3.50419262 8 7 C8.43492196 10.29298055 8.69293789 12.80334957 6.984375 15.75390625 C4.82268515 18.45601856 3.31001789 19.8966607 0 21 C-3.375 21.375 -3.375 21.375 -7 21 C-11.10508326 17.60884426 -12.79869145 15.50981416 -13.5 10.25 C-13.47062512 7.56709414 -13.2391851 6.32905233 -11.6484375 4.140625 C-7.97469835 0.74201169 -5.13098505 -1.09169895 0 0 Z " fill="#6ECC9C" transform="translate(391,403)"/>
<path d="M0 0 C2.6258382 1.78870171 3.34201385 3.11189509 5 6 C5.8063677 10.51565913 5.34922928 12.39166513 3.0625 16.375 C0.19641182 19.3957918 -2.68251712 20.11425364 -6.77734375 20.28515625 C-9.71251867 19.90858724 -11.80246815 18.82643959 -13.89453125 16.72265625 C-16.06549542 13.33963434 -16.55538902 9.95020443 -16 6 C-12.26215117 -1.02306752 -7.21714738 -2.00338057 0 0 Z " fill="#167AAF" transform="translate(354,508)"/>
<path d="M0 0 C3 1.8125 3 1.8125 5 5 C5.89114647 10.26013005 5.89911556 14.50147407 3.125 19.125 C0.63961298 21.31798855 -0.46415272 21.92692992 -3.75 22.375 C-7.12234812 21.98588291 -9.31487986 21.28031417 -11.85546875 18.9609375 C-14.42448328 14.55941772 -14.10489915 8.83316219 -13 4 C-8.96050751 -0.17024267 -5.58865626 -1.23941974 0 0 Z " fill="#ECECEF" transform="translate(518,582)"/>
<path d="M0 0 C3.03798467 2.59340154 3.86323667 4.06219433 4.4375 8 C3.8396623 12.09945851 2.60439223 14.79670583 -0.75 17.3125 C-4.06211832 18.32453615 -6.55439226 18.42314481 -10 18 C-13.58311824 15.42950213 -14.78702567 13.74541015 -16 9.5 C-16 5.5573648 -15.49535546 4.0116359 -13 1 C-8.68309533 -1.68771037 -4.78430687 -1.35189589 0 0 Z " fill="#0E172B" transform="translate(271,430)"/>
<path d="M0 0 C1.98 0 3.96 0 6 0 C6.8427743 2.39287704 7.67437002 4.78871019 8.5 7.1875 C8.73847656 7.86103516 8.97695313 8.53457031 9.22265625 9.22851562 C10.48727592 12.93204467 11.30451221 16.07940536 11 20 C11.66 20 12.32 20 13 20 C13.10957031 19.31035156 13.21914063 18.62070312 13.33203125 17.91015625 C14.37883269 11.70594284 15.81465677 5.90042672 18 0 C19.98 0 21.96 0 24 0 C21.75803913 6.76765827 19.4858905 13.52282938 17.125 20.25 C16.79886719 21.21679688 16.47273437 22.18359375 16.13671875 23.1796875 C14.22354131 28.58422765 12.6456946 32.50452561 8 36 C7.01 36 6.02 36 5 36 C4.75 33.75 4.75 33.75 5 31 C7 28.6875 7 28.6875 9 27 C6.98543853 19.89170994 4.60195938 12.9496515 2.0859375 6.00390625 C1.36565011 4.01145661 0.66997534 2.00992601 0 0 Z " fill="#60BDA3" transform="translate(910,579)"/>
<path d="M0 0 C1.32 0.33 2.64 0.66 4 1 C4.99 4.63 5.98 8.26 7 12 C8.39136272 9.21727456 9.56368395 6.64449832 10.625 3.75 C11.07875 2.5125 11.5325 1.275 12 0 C13.32 0 14.64 0 16 0 C17.32 3.96 18.64 7.92 20 12 C22.34914492 9.65085508 22.73140357 8.04320554 23.625 4.875 C23.88539063 3.96492187 24.14578125 3.05484375 24.4140625 2.1171875 C24.60742188 1.41851563 24.80078125 0.71984375 25 0 C26.32 0 27.64 0 29 0 C28.37942343 2.56364399 27.75370801 5.12584926 27.125 7.6875 C26.86396484 8.7693457 26.86396484 8.7693457 26.59765625 9.87304688 C25.64902134 13.72028845 24.59509159 17.35715569 23 21 C21.35 21 19.7 21 18 21 C17.49528803 19.23050388 16.99639315 17.45934777 16.5 15.6875 C16.2215625 14.70136719 15.943125 13.71523438 15.65625 12.69921875 C15 10 15 10 15 7 C14.34 7 13.68 7 13 7 C12.87882813 7.59167969 12.75765625 8.18335938 12.6328125 8.79296875 C11.73255357 13.03803585 10.79543379 17.02439661 9 21 C7.68 21 6.36 21 5 21 C2.45677191 14.06392339 1.05084393 7.30645606 0 0 Z " fill="#E1E2E6" transform="translate(526,582)"/>
<path d="M0 0 C0.66 0.165 1.32 0.33 2 0.5 C2 1.82 2 3.14 2 4.5 C-3.94 4.995 -3.94 4.995 -10 5.5 C-9.67 6.82 -9.34 8.14 -9 9.5 C-7.01563955 10.5308756 -7.01563955 10.5308756 -4.625 11.0625 C-1.24234061 11.94948398 0.81756856 12.69106616 3 15.5 C3.52513965 19.02593763 3.53813407 20.75622661 1.42578125 23.67578125 C-1.90173472 26.17811613 -4.13820937 25.90228854 -8.25 25.75 C-9.51328125 25.71390625 -10.7765625 25.6778125 -12.078125 25.640625 C-13.52445313 25.57101562 -13.52445313 25.57101562 -15 25.5 C-15 24.18 -15 22.86 -15 21.5 C-11.04 21.17 -7.08 20.84 -3 20.5 C-3.33 19.18 -3.66 17.86 -4 16.5 C-5.98436045 15.4691244 -5.98436045 15.4691244 -8.375 14.9375 C-11.76059191 14.04974707 -13.80930605 13.3038127 -16 10.5 C-16.69583813 6.49893076 -16.33463357 4.98103575 -14 1.625 C-9.31386317 -1.69434692 -5.45572371 -0.90928728 0 0 Z " fill="#EAEBED" transform="translate(878,578.5)"/>
<path d="M0 0 C3.5060303 0.86943897 4.94966563 2.56083702 6.9375 5.48046875 C6.9375 7.79046875 6.9375 10.10046875 6.9375 12.48046875 C2.3175 12.48046875 -2.3025 12.48046875 -7.0625 12.48046875 C-6.4025 14.13046875 -5.7425 15.78046875 -5.0625 17.48046875 C-1.4325 17.81046875 2.1975 18.14046875 5.9375 18.48046875 C5.6075 19.47046875 5.2775 20.46046875 4.9375 21.48046875 C-2.99008675 22.91399751 -2.99008675 22.91399751 -7 21.29296875 C-9.78529427 18.84528591 -10.86677436 16.74753472 -11.43359375 13.078125 C-11.55000532 8.63394199 -11.5100271 6.17972984 -9.0625 2.35546875 C-5.74736477 0.28350923 -3.84497973 -0.26943987 0 0 Z " fill="#EDEDEF" transform="translate(603.0625,581.51953125)"/>
<path d="M0 0 C2.15276561 4.13708411 3.5886146 8.39801598 5.0625 12.8125 C5.33126953 13.59431641 5.60003906 14.37613281 5.87695312 15.18164062 C6.26463867 16.33889648 6.26463867 16.33889648 6.66015625 17.51953125 C6.89355713 18.21151611 7.12695801 18.90350098 7.36743164 19.61645508 C8.1818092 22.68506492 8.55101053 25.85707371 9 29 C3.39 29 -2.22 29 -8 29 C-7.33898679 24.37290752 -6.77077485 20.80474454 -5.37109375 16.50390625 C-5.05849609 15.53388672 -4.74589844 14.56386719 -4.42382812 13.56445312 C-4.09833984 12.57380859 -3.77285156 11.58316406 -3.4375 10.5625 C-3.10814453 9.54478516 -2.77878906 8.52707031 -2.43945312 7.47851562 C-1.63136468 4.98398174 -0.81809872 2.49126517 0 0 Z " fill="#121C2F" transform="translate(744,446)"/>
<path d="M0 0 C1.90845703 0.04060547 1.90845703 0.04060547 3.85546875 0.08203125 C5.31919922 0.13423828 5.31919922 0.13423828 6.8125 0.1875 C6.8125 1.5075 6.8125 2.8275 6.8125 4.1875 C1.3675 4.6825 1.3675 4.6825 -4.1875 5.1875 C-4.5175 6.5075 -4.8475 7.8275 -5.1875 9.1875 C-4.58421875 9.29707031 -3.9809375 9.40664063 -3.359375 9.51953125 C5.5957731 11.29611708 5.5957731 11.29611708 7.8125 14.1875 C8.36204532 16.95258065 8.56110434 19.45729595 7.8125 22.1875 C5.38904045 24.8569047 3.98133205 25.17317601 0.359375 25.48046875 C-0.89359375 25.44566406 -2.1465625 25.41085937 -3.4375 25.375 C-4.70078125 25.34792969 -5.9640625 25.32085938 -7.265625 25.29296875 C-8.22984375 25.25816406 -9.1940625 25.22335937 -10.1875 25.1875 C-10.1875 23.8675 -10.1875 22.5475 -10.1875 21.1875 C-6.2275 20.8575 -2.2675 20.5275 1.8125 20.1875 C2.1425 18.8675 2.4725 17.5475 2.8125 16.1875 C2.20921875 16.08953125 1.6059375 15.9915625 0.984375 15.890625 C-2.70687477 15.20000408 -5.58735697 14.58271614 -8.75 12.5 C-10.78339807 9.22888136 -10.66784584 6.96164592 -10.1875 3.1875 C-7.67554845 -0.78065534 -4.34229102 -0.1195126 0 0 Z " fill="#66C1A1" transform="translate(946.1875,578.8125)"/>
<path d="M0 0 C2.9375 1.5 2.9375 1.5 5 4 C5.41708655 6.80196606 5.23811939 9.14256735 5 12 C0.38 12 -4.24 12 -9 12 C-6.71342943 17.10221948 -6.71342943 17.10221948 -3.51953125 17.70703125 C-2.62621094 17.74183594 -1.73289062 17.77664063 -0.8125 17.8125 C0.08855469 17.86019531 0.98960937 17.90789063 1.91796875 17.95703125 C2.60503906 17.97121094 3.29210937 17.98539063 4 18 C4 18.99 4 19.98 4 21 C0.39427296 22.20190901 -2.2102435 22.32670315 -6 22 C-8.75329021 20.20437595 -10.52627461 18.94745078 -12 16 C-12.6022781 10.65693288 -12.91321678 6.41133502 -9.9375 1.8125 C-6.22994331 -0.47514136 -4.28868719 -0.6892533 0 0 Z " fill="#E4E5E8" transform="translate(569,582)"/>
<path d="M0 0 C1.75570313 0.04060547 1.75570313 0.04060547 3.546875 0.08203125 C4.43890625 0.11683594 5.3309375 0.15164063 6.25 0.1875 C6.25 1.5075 6.25 2.8275 6.25 4.1875 C0.805 4.6825 0.805 4.6825 -4.75 5.1875 C-5.08 6.5075 -5.41 7.8275 -5.75 9.1875 C-5.15832031 9.28546875 -4.56664062 9.3834375 -3.95703125 9.484375 C5.00016926 11.17937542 5.00016926 11.17937542 8.25 15.1875 C8.375 18.75 8.375 18.75 7.25 22.1875 C3.4729865 25.14401326 0.66145501 25.53073478 -4.0625 25.375 C-5.13113281 25.34792969 -6.19976563 25.32085938 -7.30078125 25.29296875 C-8.10902344 25.25816406 -8.91726563 25.22335937 -9.75 25.1875 C-9.75 23.8675 -9.75 22.5475 -9.75 21.1875 C-5.79 20.8575 -1.83 20.5275 2.25 20.1875 C1.92 18.8675 1.59 17.5475 1.25 16.1875 C-0.73436045 15.1566244 -0.73436045 15.1566244 -3.125 14.625 C-6.50092954 13.73978069 -8.59803133 13.01832315 -10.75 10.1875 C-11.1875 6.6875 -11.1875 6.6875 -10.75 3.1875 C-7.49521858 -0.27318 -4.58051143 -0.13741534 0 0 Z " fill="#77CB9A" transform="translate(1051.75,578.8125)"/>
<path d="M0 0 C1.65 0 3.3 0 5 0 C5 2.31 5 4.62 5 7 C7.31 7 9.62 7 12 7 C12 8.32 12 9.64 12 11 C9.69 11 7.38 11 5 11 C5.33 16.28 5.66 21.56 6 27 C7.98 27.33 9.96 27.66 12 28 C12 29.32 12 30.64 12 32 C10.56416999 32.10836453 9.1259798 32.18576167 7.6875 32.25 C6.88699219 32.29640625 6.08648438 32.3428125 5.26171875 32.390625 C3 32 3 32 1.21875 30.53125 C-0.58552241 26.78391499 -0.32002867 23.34819411 -0.1875 19.25 C-0.17396484 18.45722656 -0.16042969 17.66445313 -0.14648438 16.84765625 C-0.11125223 14.89814436 -0.05744821 12.94898374 0 11 C-1.32 11 -2.64 11 -4 11 C-4 9.68 -4 8.36 -4 7 C-2.68 7 -1.36 7 0 7 C0 4.69 0 2.38 0 0 Z " fill="#69BCA0" transform="translate(960,572)"/>
<path d="M0 0 C14.52 0 29.04 0 44 0 C44 1.65 44 3.3 44 5 C29.15 5 14.3 5 -1 5 C-0.67 3.35 -0.34 1.7 0 0 Z " fill="#0F246C" transform="translate(714,606)"/>
<path d="M0 0 C3.5060303 0.86943897 4.94966563 2.56083702 6.9375 5.48046875 C6.9375 7.79046875 6.9375 10.10046875 6.9375 12.48046875 C0.6675 12.48046875 -5.6025 12.48046875 -12.0625 12.48046875 C-11.0625 5.48046875 -11.0625 5.48046875 -9 2.54296875 C-5.70064638 0.22640132 -3.94735588 -0.27661395 0 0 Z " fill="#16222F" transform="translate(1360.0625,460.51953125)"/>
<path d="M0 0 C1.65 0 3.3 0 5 0 C6.65 4.62 8.3 9.24 10 14 C10.61875 12.4325 11.2375 10.865 11.875 9.25 C13.12374836 6.08650414 14.43370292 3.01970788 16 0 C17.32 0 18.64 0 20 0 C18.12654212 5.82853562 16.07765926 11.57765379 13.9375 17.3125 C13.6801709 18.00601563 13.4228418 18.69953125 13.15771484 19.4140625 C10.33365572 26.9351508 10.33365572 26.9351508 9 29 C5.875 29.75 5.875 29.75 3 30 C3 29.01 3 28.02 3 27 C3.99 26.67 4.98 26.34 6 26 C7.57397341 20.31017658 6.17649089 16.59622876 4.125 11.3125 C3.84269531 10.55388672 3.56039062 9.79527344 3.26953125 9.01367188 C2.74621599 7.6086572 2.21709855 6.20577928 1.68017578 4.8059082 C1.0820208 3.21777023 0.53665367 1.609961 0 0 Z " fill="#E5E6E9" transform="translate(666,582)"/>
<path d="M0 0 C1.093125 0.00257813 2.18625 0.00515625 3.3125 0.0078125 C4.405625 0.00523437 5.49875 0.00265625 6.625 0 C9.3125 0.1328125 9.3125 0.1328125 10.3125 1.1328125 C10.41101171 2.96397133 10.44222629 4.79901183 10.4375 6.6328125 C10.44007812 7.633125 10.44265625 8.6334375 10.4453125 9.6640625 C10.3125 12.1328125 10.3125 12.1328125 9.3125 13.1328125 C7.31450428 13.23155066 5.31292842 13.26253049 3.3125 13.2578125 C2.219375 13.26039063 1.12625 13.26296875 0 13.265625 C-2.6875 13.1328125 -2.6875 13.1328125 -3.6875 12.1328125 C-3.78601171 10.30165367 -3.81722629 8.46661317 -3.8125 6.6328125 C-3.81507812 5.6325 -3.81765625 4.6321875 -3.8203125 3.6015625 C-3.63438294 0.14546005 -3.47791105 0.17187351 0 0 Z " fill="#5ACDC8" transform="translate(1058.6875,430.8671875)"/>
<path d="M0 0 C4.29 0 8.58 0 13 0 C13 4.29 13 8.58 13 13 C8.71 13 4.42 13 0 13 C0 8.71 0 4.42 0 0 Z " fill="#41B4CD" transform="translate(996,431)"/>
<path d="M0 0 C4.29 0 8.58 0 13 0 C13 4.29 13 8.58 13 13 C8.71 13 4.42 13 0 13 C0 8.71 0 4.42 0 0 Z " fill="#33ACD4" transform="translate(930,431)"/>
<path d="M0 0 C2.80872754 2.34060628 2.98435997 3.85402637 3.375 7.5 C2.98435997 11.14597363 2.80872754 12.65939372 0 15 C-3 15.5 -3 15.5 -6 15 C-8.2288277 13.21693784 -8.87382488 11.8709588 -9.28125 9.05859375 C-9.41375481 6.06067237 -9.36447879 3.6479623 -7.875 1 C-5.06836961 -0.49686954 -3.12242157 -0.45535315 0 0 Z " fill="#1D2233" transform="translate(517,585)"/>
<path d="M0 0 C1.32 0.33 2.64 0.66 4 1 C3.67 1.66 3.34 2.32 3 3 C4.65 3.33 6.3 3.66 8 4 C8 4.66 8 5.32 8 6 C14.93 6.495 14.93 6.495 22 7 C20.68 7.33 19.36 7.66 18 8 C18 8.66 18 9.32 18 10 C16.70990357 10.50403768 15.41786211 11.00309926 14.125 11.5 C13.40570313 11.7784375 12.68640625 12.056875 11.9453125 12.34375 C10 13 10 13 8 13 C7.67 13.99 7.34 14.98 7 16 C6.54109375 15.60167969 6.0821875 15.20335937 5.609375 14.79296875 C2.47728415 12.08857938 -0.63877459 9.42008229 -4 7 C-3.01 6.67 -2.02 6.34 -1 6 C-0.67 4.02 -0.34 2.04 0 0 Z " fill="#0F274A" transform="translate(287,474)"/>
<path d="M0 0 C4.05445642 -0.43132515 5.54970958 -0.30019361 9 2 C9.3984375 4.53125 9.3984375 4.53125 9.375 7.5 C9.38273438 8.4796875 9.39046875 9.459375 9.3984375 10.46875 C9.26695312 11.3040625 9.13546875 12.139375 9 13 C5.54754176 15.30163882 4.05261287 15.34490322 0 15 C-2 13 -2 13 -2.265625 10.72265625 C-2.26046875 9.84480469 -2.2553125 8.96695313 -2.25 8.0625 C-2.25515625 7.18722656 -2.2603125 6.31195312 -2.265625 5.41015625 C-2 3 -2 3 0 0 Z " fill="#1B2132" transform="translate(619,585)"/>
<path d="M0 0 C4.26474248 0.47386028 6.35752899 2.77031321 9 6 C9.625 8.5625 9.625 8.5625 9 11 C6.8125 13.375 6.8125 13.375 4 15 C1.10518392 14.93107581 -0.40685358 14.38861317 -2.8125 12.8125 C-4.61821206 10.05641317 -4.45178153 8.22701096 -4 5 C-2 2.125 -2 2.125 0 0 Z " fill="#43B5A8" transform="translate(717,570)"/>
<path d="M0 0 C1.12591553 0.00523682 2.25183105 0.01047363 3.41186523 0.01586914 C4.62680664 0.0190918 5.84174805 0.02231445 7.09350586 0.02563477 C8.37290039 0.03401367 9.65229492 0.04239258 10.97045898 0.05102539 C12.2537207 0.05553711 13.53698242 0.06004883 14.85913086 0.06469727 C18.04211921 0.07652994 21.22501661 0.09301471 24.40795898 0.11352539 C24.40795898 1.76352539 24.40795898 3.41352539 24.40795898 5.11352539 C15.49795898 5.11352539 6.58795898 5.11352539 -2.59204102 5.11352539 C-2.92204102 3.79352539 -3.25204102 2.47352539 -3.59204102 1.11352539 C-2.59204102 0.11352539 -2.59204102 0.11352539 0 0 Z " fill="#86D296" transform="translate(716.592041015625,590.886474609375)"/>
<path d="M0 0 C3 0.25 3 0.25 5 2.25 C5.265625 4.78125 5.265625 4.78125 5.25 7.75 C5.25515625 8.7296875 5.2603125 9.709375 5.265625 10.71875 C5 13.25 5 13.25 3 15.25 C0 15.5 0 15.5 -3 15.25 C-5 13.25 -5 13.25 -5.265625 10.71875 C-5.26046875 9.7390625 -5.2553125 8.759375 -5.25 7.75 C-5.25515625 6.7703125 -5.2603125 5.790625 -5.265625 4.78125 C-4.86151555 0.93032467 -3.79224855 0.31602071 0 0 Z " fill="#121726" transform="translate(655,584.75)"/>
<path d="M0 0 C0.33 0 0.66 0 1 0 C1 11.88 1 23.76 1 36 C1.66 36.33 2.32 36.66 3 37 C2.67 41.29 2.34 45.58 2 50 C5.3 50 8.6 50 12 50 C11.979375 48.453125 11.95875 46.90625 11.9375 45.3125 C11.92613027 35.86425481 12.50159855 26.4325125 13 17 C13.33 17 13.66 17 14 17 C14 28.55 14 40.1 14 52 C9.38 52 4.76 52 0 52 C0 34.84 0 17.68 0 0 Z " fill="#4A9A8E" transform="translate(1302,452)"/>
<path d="M0 0 C2.5 1.1875 2.5 1.1875 4.5 3.1875 C4.4375 6.625 4.4375 6.625 3.5 10.1875 C-0.26032603 13.16046534 -3.09685904 13.53046069 -7.8125 13.375 C-9.41544922 13.33439453 -9.41544922 13.33439453 -11.05078125 13.29296875 C-12.26314453 13.24076172 -12.26314453 13.24076172 -13.5 13.1875 C-13.5 11.8675 -13.5 10.5475 -13.5 9.1875 C-7.56 8.6925 -7.56 8.6925 -1.5 8.1875 C-1.83 6.8675 -2.16 5.5475 -2.5 4.1875 C-4.15 3.8575 -5.8 3.5275 -7.5 3.1875 C-3.39552239 -1.10354478 -3.39552239 -1.10354478 0 0 Z " fill="#72C89E" transform="translate(1055.5,590.8125)"/>
<path d="M0 0 C1.60875 -0.04125 3.2175 -0.0825 4.875 -0.125 C5.77992188 -0.14820313 6.68484375 -0.17140625 7.6171875 -0.1953125 C10 0 10 0 12 2 C12.25 5 12.25 5 12 8 C10 10 10 10 7.6171875 10.1953125 C6.71226562 10.17210937 5.80734375 10.14890625 4.875 10.125 C2.461875 10.063125 2.461875 10.063125 0 10 C0 6.7 0 3.4 0 0 Z " fill="#141A2E" transform="translate(486,578)"/>
<path d="M0 0 C3.09323239 1.13167039 4.59989894 2.29553704 6.5625 4.9375 C6.45714263 8.30893569 4.65188984 10.39389498 2.5625 12.9375 C-0.06405933 12.58255955 -2.01718261 12.21288036 -4.25 10.75 C-6.02010835 8.04825568 -5.83165803 6.09076426 -5.4375 2.9375 C-3.81433811 0.28918324 -3.11583983 -0.07989333 0 0 Z " fill="#0661D7" transform="translate(753.4375,558.0625)"/>
<path d="M0 0 C0.99 0 1.98 0 3 0 C3 0.66 3 1.32 3 2 C3.99 1.34 4.98 0.68 6 0 C8.6875 -0.125 8.6875 -0.125 11 0 C11 0.99 11 1.98 11 3 C9.02 3.66 7.04 4.32 5 5 C4.67 10.28 4.34 15.56 4 21 C2.68 21 1.36 21 0 21 C0 14.07 0 7.14 0 0 Z " fill="#E2E3E6" transform="translate(579,582)"/>
<path d="M0 0 C0.99 0 1.98 0 3 0 C3 9.9 3 19.8 3 30 C0 29 0 29 -2 27 C-1.67 26.34 -1.34 25.68 -1 25 C-0.85320066 23.17065435 -0.77897365 21.33499757 -0.75 19.5 C-0.72421875 18.5203125 -0.6984375 17.540625 -0.671875 16.53125 C-0.78015625 15.6959375 -0.8884375 14.860625 -1 14 C-1.99 13.34 -2.98 12.68 -4 12 C-4 11.34 -4 10.68 -4 10 C-2.68 10.33 -1.36 10.66 0 11 C0 7.37 0 3.74 0 0 Z " fill="#FAFAFA" transform="translate(628,573)"/>
<path d="M0 0 C3.96 0 7.92 0 12 0 C12 7.26 12 14.52 12 22 C11.67 22 11.34 22 11 22 C11 15.07 11 8.14 11 1 C8.36 1.33 5.72 1.66 3 2 C1.82440785 4.3511843 1.84483537 5.82717914 1.79467773 8.44970703 C1.77473251 9.37051056 1.75478729 10.29131409 1.73423767 11.24002075 C1.71752518 12.23589203 1.70081268 13.23176331 1.68359375 14.2578125 C1.66281265 15.27600067 1.64203156 16.29418884 1.62062073 17.3432312 C1.55510534 20.60375055 1.49623098 23.86435206 1.4375 27.125 C1.39431668 29.33203983 1.35070245 31.53907128 1.30664062 33.74609375 C1.1994219 39.16397775 1.09816004 44.58194461 1 50 C4.63 50 8.26 50 12 50 C12 50.33 12 50.66 12 51 C8.04 51 4.08 51 0 51 C0 34.17 0 17.34 0 0 Z " fill="#4AC8D8" transform="translate(1056,452)"/>
<path d="M0 0 C0.66 0 1.32 0 2 0 C2 3.63 2 7.26 2 11 C2.66 11 3.32 11 4 11 C3.96519531 12.33804688 3.96519531 12.33804688 3.9296875 13.703125 C3.91164063 14.87359375 3.89359375 16.0440625 3.875 17.25 C3.85179687 18.41015625 3.82859375 19.5703125 3.8046875 20.765625 C3.9896051 23.82786046 4.39176977 25.44202751 6 28 C4.02 28.33 2.04 28.66 0 29 C0 19.43 0 9.86 0 0 Z " fill="#EEEEF0" transform="translate(647,574)"/>
<path d="M0 0 C0.33 0 0.66 0 1 0 C1.390625 5.95703125 1.390625 5.95703125 1 8 C-1.40193172 10.69016353 -2.8362241 10.98610499 -6.453125 11.29296875 C-7.70609375 11.25816406 -8.9590625 11.22335937 -10.25 11.1875 C-11.51328125 11.16042969 -12.7765625 11.13335938 -14.078125 11.10546875 C-15.04234375 11.07066406 -16.0065625 11.03585937 -17 11 C-17 9.68 -17 8.36 -17 7 C-16.15695312 6.96261719 -15.31390625 6.92523437 -14.4453125 6.88671875 C-12.80175781 6.78810547 -12.80175781 6.78810547 -11.125 6.6875 C-9.48917969 6.60048828 -9.48917969 6.60048828 -7.8203125 6.51171875 C-6.88960937 6.34285156 -5.95890625 6.17398438 -5 6 C-4.34 5.01 -3.68 4.02 -3 3 C-2.67 3.66 -2.34 4.32 -2 5 C-1.34 3.35 -0.68 1.7 0 0 Z " fill="#57AE97" transform="translate(953,593)"/>
<path d="M0 0 C5.61 0 11.22 0 17 0 C16.67 1.65 16.34 3.3 16 5 C10.72 5 5.44 5 0 5 C0 3.35 0 1.7 0 0 Z " fill="#022D82" transform="translate(741,591)"/>
<path d="M0 0 C2.45840605 -0.02691685 4.91651882 -0.04679802 7.375 -0.0625 C8.07367187 -0.07087891 8.77234375 -0.07925781 9.4921875 -0.08789062 C14.7734375 -0.11328125 14.7734375 -0.11328125 17 1 C17 2.32 17 3.64 17 5 C15.55367187 4.94779297 15.55367187 4.94779297 14.078125 4.89453125 C12.81484375 4.86746094 11.5515625 4.84039063 10.25 4.8125 C8.99703125 4.77769531 7.7440625 4.74289062 6.453125 4.70703125 C2.85890643 5.01197061 1.55274874 5.54394629 -1 8 C-1.33 7.01 -1.66 6.02 -2 5 C-1.34 4.01 -0.68 3.02 0 2 C0 1.34 0 0.68 0 0 Z " fill="#6BCBA5" transform="translate(890,569)"/>
<path d="M0 0 C3.625 0.3125 3.625 0.3125 5.5625 2.125 C6.625 4.3125 6.625 4.3125 6.625 7.3125 C2.665 7.3125 -1.295 7.3125 -5.375 7.3125 C-4.345835 0.40239213 -4.345835 0.40239213 0 0 Z " fill="#152934" transform="translate(985.375,582.6875)"/>
<path d="M0 0 C0.66 0.33 1.32 0.66 2 1 C2 2.98 2 4.96 2 7 C2.66 7 3.32 7 4 7 C4 7.66 4 8.32 4 9 C8.455 9.99 8.455 9.99 13 11 C13 11.33 13 11.66 13 12 C2.83763838 12.19926199 2.83763838 12.19926199 -1 11 C-1.33 10.34 -1.66 9.68 -2 9 C-4.02463255 8.34786708 -4.02463255 8.34786708 -6 8 C-5.25 6.0625 -5.25 6.0625 -4 4 C-1.875 3.25 -1.875 3.25 0 3 C0 2.01 0 1.02 0 0 Z " fill="#1475A8" transform="translate(296,469)"/>
<path d="M0 0 C1.32 0.33 2.64 0.66 4 1 C4 6.94 4 12.88 4 19 C2.68 19 1.36 19 0 19 C0 12.73 0 6.46 0 0 Z " fill="#65C0A2" transform="translate(1017,585)"/>
<path d="M0 0 C4.29 0 8.58 0 13 0 C13 1.65 13 3.3 13 5 C8.38 5 3.76 5 -1 5 C-0.67 3.35 -0.34 1.7 0 0 Z " fill="#BBC8B4" transform="translate(714,606)"/>
<path d="M0 0 C1.093125 0.00257813 2.18625 0.00515625 3.3125 0.0078125 C4.405625 0.00523437 5.49875 0.00265625 6.625 0 C9.3125 0.1328125 9.3125 0.1328125 10.3125 1.1328125 C10.41101171 2.96397133 10.44222629 4.79901183 10.4375 6.6328125 C10.44007812 7.633125 10.44265625 8.6334375 10.4453125 9.6640625 C10.3125 12.1328125 10.3125 12.1328125 9.3125 13.1328125 C7.31450428 13.23155066 5.31292842 13.26253049 3.3125 13.2578125 C2.219375 13.26039063 1.12625 13.26296875 0 13.265625 C-2.6875 13.1328125 -2.6875 13.1328125 -3.6875 12.1328125 C-3.78601171 10.30165367 -3.81722629 8.46661317 -3.8125 6.6328125 C-3.81507812 5.6325 -3.81765625 4.6321875 -3.8203125 3.6015625 C-3.63438294 0.14546005 -3.47791105 0.17187351 0 0 Z M-1.6875 1.1328125 C-1.6875 4.4328125 -1.6875 7.7328125 -1.6875 11.1328125 C1.9425 11.1328125 5.5725 11.1328125 9.3125 11.1328125 C9.3125 7.8328125 9.3125 4.5328125 9.3125 1.1328125 C5.6825 1.1328125 2.0525 1.1328125 -1.6875 1.1328125 Z " fill="#50ACAC" transform="translate(1058.6875,430.8671875)"/>
<path d="M0 0 C0.88429688 -0.01417969 1.76859375 -0.02835938 2.6796875 -0.04296875 C5.125 0.1875 5.125 0.1875 8.125 2.1875 C7.135 2.5175 6.145 2.8475 5.125 3.1875 C8.755 3.5175 12.385 3.8475 16.125 4.1875 C16.125 4.5175 16.125 4.8475 16.125 5.1875 C9.195 5.1875 2.265 5.1875 -4.875 5.1875 C-5.205 3.8675 -5.535 2.5475 -5.875 1.1875 C-4.21846314 -0.46903686 -2.26849204 0.01643835 0 0 Z " fill="#91D399" transform="translate(718.875,590.8125)"/>
<path d="M0 0 C1.32 0 2.64 0 4 0 C3.38357466 2.62728858 2.75732213 5.25153582 2.125 7.875 C1.95097656 8.62136719 1.77695312 9.36773438 1.59765625 10.13671875 C0.2265625 15.7734375 0.2265625 15.7734375 -2 18 C-2.99 18 -3.98 18 -5 18 C-3.53889252 11.93078433 -1.83402304 5.96668828 0 0 Z " fill="#E0E0E3" transform="translate(551,582)"/>
<path d="M0 0 C1.93166016 0.01740234 1.93166016 0.01740234 3.90234375 0.03515625 C5.19269531 0.04417969 6.48304688 0.05320312 7.8125 0.0625 C8.81152344 0.07410156 9.81054688 0.08570313 10.83984375 0.09765625 C10.83984375 1.41765625 10.83984375 2.73765625 10.83984375 4.09765625 C2.91984375 4.59265625 2.91984375 4.59265625 -5.16015625 5.09765625 C-3.91599555 0.12101346 -3.91599555 0.12101346 0 0 Z " fill="#72C9A2" transform="translate(942.16015625,578.90234375)"/>
<path d="M0 0 C0.33 0 0.66 0 1 0 C1.10128827 6.63845817 1.17141794 13.27671766 1.21972656 19.91577148 C1.23986166 22.17496182 1.26717189 24.43409992 1.30175781 26.69311523 C1.35019162 29.93746821 1.37294976 33.18113317 1.390625 36.42578125 C1.41127014 37.43836502 1.43191528 38.45094879 1.45318604 39.49421692 C1.45348816 40.43496567 1.45379028 41.37571442 1.45410156 42.3449707 C1.46298401 43.17325882 1.47186646 44.00154694 1.48101807 44.85493469 C1 47 1 47 -0.90338135 48.79093933 C-3 50 -3 50 -5 50 C-5.495 48.515 -5.495 48.515 -6 47 C-5.360625 46.87625 -4.72125 46.7525 -4.0625 46.625 C-3.381875 46.41875 -2.70125 46.2125 -2 46 C-0.84708316 43.69416631 -0.84602662 42.30133113 -0.79467773 39.73388672 C-0.77473251 38.85312469 -0.75478729 37.97236267 -0.73423767 37.06491089 C-0.71752518 36.11278717 -0.70081268 35.16066345 -0.68359375 34.1796875 C-0.66281265 33.20589142 -0.64203156 32.23209534 -0.62062073 31.22879028 C-0.55511402 28.11093353 -0.49623503 24.99299097 -0.4375 21.875 C-0.39431585 19.76431396 -0.3507016 17.65363667 -0.30664062 15.54296875 C-0.19943153 10.3620705 -0.09766722 5.18108644 0 0 Z " fill="#338E98" transform="translate(374,459)"/>
<path d="M0 0 C2.89659753 0.32184417 5.31897331 0.61408488 7.875 2.0625 C9.73193849 5.26056073 9.17925295 8.35518997 9 12 C5.04 11.67 1.08 11.34 -3 11 C-2.67 10.34 -2.34 9.68 -2 9 C0.64 9 3.28 9 6 9 C5.36078035 6.52372901 5.36078035 6.52372901 4 4 C1.47627099 2.63921965 1.47627099 2.63921965 -1 2 C-0.67 1.34 -0.34 0.68 0 0 Z " fill="#F8F8F9" transform="translate(565,582)"/>
<path d="M0 0 C0.33 0 0.66 0 1 0 C1 2.64 1 5.28 1 8 C-4.28 8 -9.56 8 -15 8 C-15 7.01 -15 6.02 -15 5 C-10.71 5 -6.42 5 -2 5 C-1.67 3.68 -1.34 2.36 -1 1 C-0.67 0.67 -0.34 0.34 0 0 Z " fill="#78D7B1" transform="translate(994,585)"/>
<path d="M0 0 C0.33 0 0.66 0 1 0 C1 5.94 1 11.88 1 18 C-0.32 18 -1.64 18 -3 18 C-2.8863485 15.37405216 -2.75960946 12.74988453 -2.625 10.125 C-2.5940625 9.37863281 -2.563125 8.63226562 -2.53125 7.86328125 C-2.2265625 2.2265625 -2.2265625 2.2265625 0 0 Z " fill="#68CBA6" transform="translate(1004,585)"/>
<path d="M0 0 C1.32 1.65 2.64 3.3 4 5 C3.67 5.66 3.34 6.32 3 7 C2.67 7 2.34 7 2 7 C1.67 20.53 1.34 34.06 1 48 C0.67 48 0.34 48 0 48 C0 32.16 0 16.32 0 0 Z " fill="#212838" transform="translate(495,455)"/>
<path d="M0 0 C0.99 0.103125 1.98 0.20625 3 0.3125 C5 3.3125 5 3.3125 5 6.3125 C1.37 6.3125 -2.26 6.3125 -6 6.3125 C-4.54010695 0.47292781 -4.54010695 0.47292781 0 0 Z " fill="#222737" transform="translate(566,584.6875)"/>
<path d="M0 0 C1.32 0 2.64 0 4 0 C2.33333333 5 0.66666667 10 -1 15 C-1.99 15 -2.98 15 -4 15 C-5 13 -5 13 -4.2578125 10.21484375 C-3.88398437 9.13332031 -3.51015625 8.05179688 -3.125 6.9375 C-2.75632812 5.85339844 -2.38765625 4.76929688 -2.0078125 3.65234375 C-1 1 -1 1 0 0 Z " fill="#E4E5E8" transform="translate(682,582)"/>
<path d="M0 0 C3.0625 0.1875 3.0625 0.1875 5.0625 2.1875 C5.0625 3.5075 5.0625 4.8275 5.0625 6.1875 C1.7625 6.1875 -1.5375 6.1875 -4.9375 6.1875 C-3.87127483 0.24710265 -3.87127483 0.24710265 0 0 Z " fill="#262C3E" transform="translate(600.9375,584.8125)"/>
<path d="M0 0 C3.96 0.33 7.92 0.66 12 1 C12 1.33 12 1.66 12 2 C10.35 2.33 8.7 2.66 7 3 C9.64 3.33 12.28 3.66 15 4 C14.67 4.66 14.34 5.32 14 6 C8.78020872 6.1799928 4.92737019 5.97094808 0 4 C0 2.68 0 1.36 0 0 Z " fill="#58AB97" transform="translate(885,599)"/>
<path d="M0 0 C3.65316671 1.24976756 4.78065836 1.67098753 7 5 C7.1953125 7.26171875 7.1953125 7.26171875 7.125 9.6875 C7.10695313 10.49574219 7.08890625 11.30398438 7.0703125 12.13671875 C7.03550781 13.05904297 7.03550781 13.05904297 7 14 C6.67 14 6.34 14 6 14 C5.67 12.02 5.34 10.04 5 8 C4.01 8 3.02 8 2 8 C1.34 7.01 0.68 6.02 0 5 C-3.06556598 4.26656572 -3.06556598 4.26656572 -6 4 C-6 3.67 -6 3.34 -6 3 C-4.02 3 -2.04 3 0 3 C0 2.01 0 1.02 0 0 Z " fill="#67B796" transform="translate(989,579)"/>
<path d="M0 0 C0 0.99 0 1.98 0 3 C-0.93972656 3.19916016 -0.93972656 3.19916016 -1.8984375 3.40234375 C-3.12433594 3.66724609 -3.12433594 3.66724609 -4.375 3.9375 C-5.18710937 4.11152344 -5.99921875 4.28554688 -6.8359375 4.46484375 C-10.35689278 5.3355493 -10.88900982 5.83351473 -13 9 C-13.34538204 5.89156165 -13.23301458 4.37484955 -11.5625 1.6875 C-7.80766223 -0.78519805 -4.37248747 -0.33634519 0 0 Z " fill="#72CEA2" transform="translate(989,579)"/>
<path d="M0 0 C0.33 0 0.66 0 1 0 C0.52060632 4.71403788 0.03165952 8.66579301 -2 13 C-3.32 13 -4.64 13 -6 13 C-6 11.68 -6 10.36 -6 9 C-5.01 9 -4.02 9 -3 9 C-2.87625 7.88625 -2.7525 6.7725 -2.625 5.625 C-2 2 -2 2 0 0 Z " fill="#E4E5E9" transform="translate(537,590)"/>
<path d="M0 0 C0.33 0.66 0.66 1.32 1 2 C3.52733235 2.65555119 3.52733235 2.65555119 6 3 C6 3.66 6 4.32 6 5 C12.93 5.495 12.93 5.495 20 6 C15.58565706 8.20717147 13.84429838 8.55590309 9 8 C5.84979005 6.56033399 2.92199982 4.85523798 0 3 C0 2.01 0 1.02 0 0 Z " fill="#124679" transform="translate(289,475)"/>
<path d="M0 0 C0.845625 0.433125 1.69125 0.86625 2.5625 1.3125 C-0.4375 2.3125 -0.4375 2.3125 -2.296875 2.58984375 C-5.42683576 3.64649109 -7.28866321 5.63398142 -9.6875 7.875 C-10.57953125 8.70128906 -11.4715625 9.52757812 -12.390625 10.37890625 C-13.06609375 11.01699219 -13.7415625 11.65507812 -14.4375 12.3125 C-14.7675 11.6525 -15.0975 10.9925 -15.4375 10.3125 C-6.52217742 -1.30443548 -6.52217742 -1.30443548 0 0 Z " fill="#54BA9A" transform="translate(378.4375,432.6875)"/>
<path d="M0 0 C1.32 0.66 2.64 1.32 4 2 C2.71700242 4.86207152 1.469364 7.0245088 -1 9 C-1.99 9 -2.98 9 -4 9 C-4.25 6.75 -4.25 6.75 -4 4 C-2 1.6875 -2 1.6875 0 0 Z " fill="#5EC19B" transform="translate(919,606)"/>
<path d="M0 0 C1.32 0.33 2.64 0.66 4 1 C4 4.63 4 8.26 4 12 C3.34 10.68 2.68 9.36 2 8 C1.67 10.31 1.34 12.62 1 15 C0.67 15 0.34 15 0 15 C0 10.05 0 5.1 0 0 Z " fill="#6ECBA8" transform="translate(1017,585)"/>
<path d="M0 0 C1.093125 0.226875 2.18625 0.45375 3.3125 0.6875 C3.3125 2.0075 3.3125 3.3275 3.3125 4.6875 C0.3425 4.6875 -2.6275 4.6875 -5.6875 4.6875 C-6.0175 4.0275 -6.3475 3.3675 -6.6875 2.6875 C-4.58035839 -0.41123767 -3.86755884 -0.32775922 0 0 Z " fill="#52AD92" transform="translate(968.6875,599.3125)"/>
<path d="M0 0 C3.3 0 6.6 0 10 0 C9.67 0.99 9.34 1.98 9 3 C4.545 3.495 4.545 3.495 0 4 C0 2.68 0 1.36 0 0 Z " fill="#D0D1D6" transform="translate(599,600)"/>
<path d="M0 0 C2.64 0 5.28 0 8 0 C8 1.65 8 3.3 8 5 C5.125 5.125 5.125 5.125 2 5 C1.34 4.34 0.68 3.68 0 3 C0 2.01 0 1.02 0 0 Z " fill="#6DC78F" transform="translate(733,591)"/>
<path d="M0 0 C3.3 0 6.6 0 10 0 C10 1.32 10 2.64 10 4 C6.7 3.67 3.4 3.34 0 3 C0 2.01 0 1.02 0 0 Z " fill="#8ED9A4" transform="translate(1048,579)"/>
<path d="M0 0 C4.95 0 9.9 0 15 0 C15 0.66 15 1.32 15 2 C14.08476563 2.06058594 13.16953125 2.12117188 12.2265625 2.18359375 C11.03804687 2.26738281 9.84953125 2.35117187 8.625 2.4375 C7.44164062 2.51871094 6.25828125 2.59992188 5.0390625 2.68359375 C2.08481099 2.81084936 2.08481099 2.81084936 0 4 C0 2.68 0 1.36 0 0 Z " fill="#3597C7" transform="translate(737,431)"/>
<path d="M0 0 C0.86625 0.3403125 0.86625 0.3403125 1.75 0.6875 C1.75 1.0175 1.75 1.3475 1.75 1.6875 C3.4 2.0175 5.05 2.3475 6.75 2.6875 C6.75 3.0175 6.75 3.3475 6.75 3.6875 C2.79 3.6875 -1.17 3.6875 -5.25 3.6875 C-5.25 5.6675 -5.25 7.6475 -5.25 9.6875 C-5.58 9.6875 -5.91 9.6875 -6.25 9.6875 C-6.5 6.375 -6.5 6.375 -6.25 2.6875 C-4.13578911 0.27125898 -3.2149628 -0.44652261 0 0 Z " fill="#73BE91" transform="translate(1047.25,579.3125)"/>
<path d="M0 0 C0.66 0 1.32 0 2 0 C2.33 0.99 2.66 1.98 3 3 C5.09138456 4.23950042 5.09138456 4.23950042 7.5625 5.1875 C8.38878906 5.53167969 9.21507812 5.87585938 10.06640625 6.23046875 C11.02353516 6.61138672 11.02353516 6.61138672 12 7 C8.62103629 7.95821359 6.41222148 8.01444422 3 7 C2.67 6.34 2.34 5.68 2 5 C-0.02463255 4.34786708 -0.02463255 4.34786708 -2 4 C-1.34 2.68 -0.68 1.36 0 0 Z " fill="#115B94" transform="translate(292,473)"/>
<path d="M0 0 C-0.33 1.32 -0.66 2.64 -1 4 C-1 3.01 -1 2.02 -1 1 C-6.20540698 1.96396425 -10.59913433 2.87680501 -15 6 C-14.00456145 3.375662 -13.02807645 2.02394756 -10.875 0.1875 C-6.84258454 -1.47806291 -4.2575419 -0.793779 0 0 Z " fill="#8BD593" transform="translate(1332,452)"/>
<path d="M0 0 C3.63 0.33 7.26 0.66 11 1 C11 1.99 11 2.98 11 4 C7.37 4 3.74 4 0 4 C0 2.68 0 1.36 0 0 Z " fill="#60BA9D" transform="translate(936,600)"/>
<path d="M0 0 C3.3 0 6.6 0 10 0 C10 0.99 10 1.98 10 3 C6.7 3.33 3.4 3.66 0 4 C0 2.68 0 1.36 0 0 Z " fill="#65B390" transform="translate(1042,600)"/>
<path d="M0 0 C1.65 0 3.3 0 5 0 C4.34 0.66 3.68 1.32 3 2 C8.61 2.33 14.22 2.66 20 3 C20 3.33 20 3.66 20 4 C13.73 4 7.46 4 1 4 C0.67 2.68 0.34 1.36 0 0 Z " fill="#98DF9F" transform="translate(715,592)"/>
<path d="M0 0 C0.66 0.33 1.32 0.66 2 1 C-1.3 4.3 -4.6 7.6 -8 11 C-8.33 10.34 -8.66 9.68 -9 9 C-7.87895467 7.68412059 -6.75303035 6.37239647 -5.625 5.0625 C-4.99851562 4.33160156 -4.37203125 3.60070312 -3.7265625 2.84765625 C-2 1 -2 1 0 0 Z " fill="#8ED691" transform="translate(1203,435)"/>
<path d="M0 0 C1.65 0.33 3.3 0.66 5 1 C5 1.66 5 2.32 5 3 C3.04072937 4.7143618 1.04119788 6.38405168 -1 8 C-1.33 7.01 -1.66 6.02 -2 5 C-1.34 4.01 -0.68 3.02 0 2 C0 1.34 0 0.68 0 0 Z " fill="#64C1A2" transform="translate(890,569)"/>
<path d="M0 0 C2.31 0 4.62 0 7 0 C5.75 2.5 5.75 2.5 4 5 C2.68 5 1.36 5 0 5 C0 3.35 0 1.7 0 0 Z " fill="#02305B" transform="translate(741,591)"/>
<path d="M0 0 C0.66 0 1.32 0 2 0 C1.49287967 3.71888239 0.88391785 6.73454239 -1 10 C-1.33 9.34 -1.66 8.68 -2 8 C-2.66 7.67 -3.32 7.34 -4 7 C-3.34 6.67 -2.68 6.34 -2 6 C-1.62690101 4.34178227 -1.29299023 2.67422986 -1 1 C-0.67 0.67 -0.34 0.34 0 0 Z " fill="#63C5A8" transform="translate(928,587)"/>
<path d="M0 0 C0.639375 0.28875 1.27875 0.5775 1.9375 0.875 C5.88410292 2.3247725 9.8874607 3.15778062 14 4 C14 4.33 14 4.66 14 5 C10.95657765 5.72936048 8.13283784 6.23574867 5 6 C2.62662731 4.23893579 1.61173005 2.5475733 0 0 Z " fill="#103462" transform="translate(291,479)"/>
<path d="M0 0 C0.53625 0.268125 1.0725 0.53625 1.625 0.8125 C0.738125 1.39 -0.14875 1.9675 -1.0625 2.5625 C-3.96542244 4.49318476 -6.68268649 6.59530064 -9.375 8.8125 C-9.12158809 5.39143924 -8.06717816 4.50467816 -5.5625 2 C-2.375 -0.1875 -2.375 -0.1875 0 0 Z " fill="#87D397" transform="translate(1259.375,453.1875)"/>
<path d="M0 0 C0.8353125 0.37125 0.8353125 0.37125 1.6875 0.75 C0.800625 1.3275 -0.08625 1.905 -1 2.5 C-3.90292244 4.43068476 -6.62018649 6.53280064 -9.3125 8.75 C-7.925165 4.2096309 -5.3700603 -0.58054706 0 0 Z " fill="#95D990" transform="translate(1348.3125,453.25)"/>
<path d="M0 0 C1.32 0.33 2.64 0.66 4 1 C3.01 2.485 3.01 2.485 2 4 C3.30096474 7.67480584 3.30096474 7.67480584 5 11 C4.34 11 3.68 11 3 11 C3 10.34 3 9.68 3 9 C2.34 9 1.68 9 1 9 C-0.4783226 6.04335481 -0.06032783 3.25770263 0 0 Z " fill="#74CA9E" transform="translate(317,341)"/>
<path d="M0 0 C0 2.64 0 5.28 0 8 C-1.32 7.67 -2.64 7.34 -4 7 C-3.625 4.0625 -3.625 4.0625 -3 1 C-1 0 -1 0 0 0 Z " fill="#69D2A8" transform="translate(995,585)"/>
<path d="M0 0 C1.98 0 3.96 0 6 0 C5.67 0.66 5.34 1.32 5 2 C4.34 1.67 3.68 1.34 3 1 C3 2.32 3 3.64 3 5 C1.68 5.33 0.36 5.66 -1 6 C-0.67 4.02 -0.34 2.04 0 0 Z " fill="#57B499" transform="translate(928,579)"/>
<path d="M0 0 C1.32 0 2.64 0 4 0 C3.34 1.98 2.68 3.96 2 6 C1.01 6 0.02 6 -1 6 C-1.33 5.34 -1.66 4.68 -2 4 C-1.0625 1.875 -1.0625 1.875 0 0 Z " fill="#C7C9CF" transform="translate(682,582)"/>
<path d="M0 0 C0.99 0.33 1.98 0.66 3 1 C3 2.98 3 4.96 3 7 C2.34 6.34 1.68 5.68 1 5 C0.01 5.33 -0.98 5.66 -2 6 C-1.34 4.02 -0.68 2.04 0 0 Z " fill="#19333F" transform="translate(933,581)"/>
<path d="M0 0 C1.98 0 3.96 0 6 0 C5.360625 0.309375 4.72125 0.61875 4.0625 0.9375 C0.90231425 4.09768575 1.18099207 7.68333908 1 12 C0.67 12 0.34 12 0 12 C0 8.04 0 4.08 0 0 Z " fill="#9FE5A2" transform="translate(1303,452)"/>
<path d="M0 0 C-1.65 1.98 -3.3 3.96 -5 6 C-8 2.125 -8 2.125 -8 1 C-2.25 -1.125 -2.25 -1.125 0 0 Z " fill="#1069CB" transform="translate(207,560)"/>
<path d="M0 0 C2 4 2 4 1.8125 6.1875 C1.4103125 7.0846875 1.4103125 7.0846875 1 8 C0.01 8.33 -0.98 8.66 -2 9 C-1.34 6.03 -0.68 3.06 0 0 Z " fill="#192E48" transform="translate(744,446)"/>
<path d="M0 0 C1.32 0.66 2.64 1.32 4 2 C3.67 2.99 3.34 3.98 3 5 C2.01 5 1.02 5 0 5 C-0.99 5.495 -0.99 5.495 -2 6 C-2.66 5.34 -3.32 4.68 -4 4 C-2.68 2.68 -1.36 1.36 0 0 Z " fill="#58AE95" transform="translate(919,606)"/>
<path d="M0 0 C0 0.99 0 1.98 0 3 C-3.63 2.67 -7.26 2.34 -11 2 C-11 1.67 -11 1.34 -11 1 C-3.375 0 -3.375 0 0 0 Z " fill="#68CBA2" transform="translate(995,600)"/>
<path d="M0 0 C0.66 0.33 1.32 0.66 2 1 C2 4 2 4 1 6 C-0.98 5.34 -2.96 4.68 -5 4 C-3.36587557 2.29159719 -2.13093906 1.06546953 0 0 Z " fill="#6AB793" transform="translate(1053,590)"/>
<path d="M0 0 C1.32 0 2.64 0 4 0 C4 1.32 4 2.64 4 4 C2.35 4 0.7 4 -1 4 C-0.67 2.68 -0.34 1.36 0 0 Z " fill="#72C2AA" transform="translate(944,590)"/>
<path d="M0 0 C0.66 0 1.32 0 2 0 C1.34 2.97 0.68 5.94 0 9 C-2 5 -2 5 -1.125 2.25 C-0.75375 1.5075 -0.3825 0.765 0 0 Z " fill="#1F202E" transform="translate(547,589)"/>
<path d="M0 0 C0.33 0 0.66 0 1 0 C0.67 2.64 0.34 5.28 0 8 C-0.66 8 -1.32 8 -2 8 C-2.125 5.125 -2.125 5.125 -2 2 C-1.34 1.34 -0.68 0.68 0 0 Z " fill="#F5F6F7" transform="translate(537,590)"/>
<path d="M0 0 C0.66 0 1.32 0 2 0 C0.70700306 2.88437779 -0.65941363 4.87219421 -3 7 C-3.66 6.67 -4.32 6.34 -5 6 C-3.38405168 3.95880212 -1.7143618 1.95927063 0 0 Z " fill="#55B4B3" transform="translate(1085,455)"/>
<path d="M0 0 C0 0.99 0 1.98 0 3 C-3.3 2.67 -6.6 2.34 -10 2 C-10 1.67 -10 1.34 -10 1 C-6.56484998 0.37542727 -3.50935186 0 0 0 Z " fill="#81DDAE" transform="translate(953,580)"/>
</svg>
